<svg width="30" height="30" viewBox="0 0 30 30" fill="none" xmlns="http://www.w3.org/2000/svg">
<path fill-rule="evenodd" clip-rule="evenodd" d="M0.808594 15C0.808594 11.236 2.30383 7.62619 4.96538 4.96464C7.62692 2.3031 11.2367 0.807861 15.0007 0.807861C18.7647 0.807861 22.3746 2.3031 25.0361 4.96464C27.6976 7.62619 29.1929 11.236 29.1929 15C29.1929 18.764 27.6976 22.3738 25.0361 25.0354C22.3746 27.6969 18.7647 29.1921 15.0007 29.1921C11.2367 29.1921 7.62692 27.6969 4.96538 25.0354C2.30383 22.3738 0.808594 18.764 0.808594 15ZM15.0007 2.84358C11.7767 2.84358 8.68462 4.12434 6.40484 6.40411C4.12507 8.68388 2.84431 11.7759 2.84431 15C2.84431 18.2241 4.12507 21.3161 6.40484 23.5959C8.68462 25.8757 11.7767 27.1564 15.0007 27.1564C18.2248 27.1564 21.3169 25.8757 23.5966 23.5959C25.8764 21.3161 27.1572 18.2241 27.1572 15C27.1572 11.7759 25.8764 8.68388 23.5966 6.40411C21.3169 4.12434 18.2248 2.84358 15.0007 2.84358Z" fill="black"/>
</svg>
