<svg width="50" height="53" viewBox="0 0 50 53" fill="none" xmlns="http://www.w3.org/2000/svg">
<path d="M6.5863 26.8008C6.65218 26.8008 6.718 26.8008 6.77658 26.8008C6.64483 26.8008 6.51307 26.7935 6.38867 26.7788C6.45455 26.7862 6.52043 26.7935 6.5863 26.8008Z" fill="url(#paint0_linear_223_900)"/>
<path d="M6.388 26.7778C6.30747 26.7705 6.22701 26.7632 6.14648 26.7559C6.22701 26.7632 6.30747 26.7705 6.388 26.7778Z" fill="url(#paint1_linear_223_900)"/>
<path d="M0.453747 17.3888C3.82757 7.30383 13.3343 0 24.5609 0C36.2997 0 46.1797 7.96255 49.1144 18.7792C47.9215 17.9596 46.5676 17.3448 45.1478 16.957C43.5597 16.5252 41.913 16.3642 40.2883 16.3861C37.0243 16.43 33.8773 17.1765 30.8548 18.084C27.8395 19.0135 24.9268 20.1551 22.0799 21.3481C19.233 22.541 16.4446 23.7924 13.6856 24.9853L12.6537 25.4318C12.3097 25.5782 11.9511 25.7392 11.673 25.8343L10.7875 26.1636L9.90923 26.4198C8.94318 26.6686 8.01378 26.8003 7.14284 26.8077C7.02573 26.8077 6.90868 26.8077 6.79157 26.8077C6.65982 26.8077 6.52812 26.8003 6.40366 26.7857C6.32319 26.7784 6.24267 26.7711 6.16215 26.7637C2.68589 26.3466 0 23.4118 0 19.8405C0 19.8405 0 18.6255 0.453747 17.3888Z" fill="url(#paint2_linear_223_900)"/>
<path d="M42.5781 20.5275C42.6147 20.5275 42.6513 20.5201 42.6879 20.5201C42.644 20.5275 42.6147 20.5275 42.5781 20.5275Z" fill="url(#paint3_linear_223_900)"/>
<path d="M43.0315 20.5063C42.9144 20.5063 42.7973 20.521 42.6875 20.521C42.8704 20.5136 43.0534 20.5136 43.2291 20.5136C43.1632 20.5136 43.0973 20.5063 43.0315 20.5063Z" fill="url(#paint4_linear_223_900)"/>
<path d="M42.1914 20.5655C42.3158 20.5582 42.4475 20.5435 42.572 20.5363C42.4475 20.5363 42.3231 20.5435 42.1914 20.5655Z" fill="url(#paint5_linear_223_900)"/>
<path d="M49.9907 27.2844C49.9834 27.5405 49.9834 27.7967 49.9688 28.0455C49.9834 27.8552 49.998 27.6649 49.998 27.4746C49.998 27.4088 49.9907 27.3502 49.9907 27.2844Z" fill="url(#paint6_linear_223_900)"/>
<path d="M43.2307 20.5132C43.0477 20.5132 42.8648 20.5132 42.6891 20.5205C42.6525 20.5205 42.616 20.5205 42.5794 20.5278C42.455 20.5351 42.3232 20.5498 42.1988 20.5571C41.6499 20.601 41.0937 20.6669 40.5522 20.762C37.7711 21.2524 35.0779 22.3501 32.4652 23.6308C29.8525 24.9262 27.3056 26.4265 24.7662 28.0146C24.4148 28.2342 24.0636 28.4537 23.7123 28.6806C21.5314 30.0565 19.3504 31.4909 17.1257 32.9107L16.1523 33.5328C15.8229 33.7377 15.5229 33.9426 15.113 34.1695L13.9494 34.8282L12.7199 35.4209C11.044 36.1675 9.1997 36.7675 7.20178 37.031C5.23308 37.2945 3.11071 37.214 1.07617 36.7237C4.91839 45.9011 13.9787 52.356 24.5539 52.356C34.1997 52.356 42.5867 46.9915 46.9046 39.0802C48.7049 35.7796 49.7954 32.0398 49.9711 28.0585C49.9857 27.8024 49.9857 27.5536 49.993 27.2974C49.8905 23.5943 46.9192 20.6229 43.2307 20.5132Z" fill="url(#paint7_linear_223_900)"/>
<path d="M43.2302 20.5132C43.0473 20.5132 42.8643 20.5132 42.6887 20.5205C42.6521 20.5205 42.6155 20.5205 42.5789 20.5278C42.4545 20.5351 42.3227 20.5498 42.1983 20.5571C41.6494 20.601 41.0933 20.6669 40.5516 20.762C37.7707 21.2524 35.0774 22.3501 32.4648 23.6308C29.8521 24.9262 27.3052 26.4265 24.7657 28.0146C24.4144 28.2342 24.0631 28.4537 23.7118 28.6806C22.636 29.3613 21.5602 30.0492 20.4844 30.7517C45.0964 19.935 48.1483 36.3943 48.1556 36.4309C49.2094 33.8255 49.8462 31.0006 49.9779 28.0512C49.9926 27.7951 49.9926 27.5463 49.9998 27.2901C49.8901 23.5943 46.9188 20.6229 43.2302 20.5132Z" fill="url(#paint8_linear_223_900)"/>
<path d="M6.27196 7.80273C3.6812 10.5032 1.66862 13.76 0.453747 17.39C0 18.6268 0 19.8417 0 19.8417C0 23.4131 2.68589 26.3551 6.14756 26.7577C6.22802 26.765 6.30855 26.7723 6.38907 26.7796C6.52077 26.7869 6.65252 26.7943 6.77693 26.8015C6.89403 26.8015 7.01114 26.8015 7.12819 26.8015C7.99913 26.7869 8.93589 26.6625 9.89458 26.4137L10.7728 26.1575L11.6583 25.8282C11.9364 25.733 12.3024 25.572 12.639 25.4257L13.671 24.9793C16.43 23.7864 19.2184 22.5349 22.0652 21.3419C23.7339 20.6394 25.4245 19.9661 27.1443 19.3367V19.3294C-0.600114 27.1529 6.23538 7.91255 6.27196 7.80273Z" fill="url(#paint9_linear_223_900)"/>
<defs>
<linearGradient id="paint0_linear_223_900" x1="42.0442" y1="7.39169" x2="4.1274" y2="28.1408" gradientUnits="userSpaceOnUse">
<stop stop-color="#FF9700"/>
<stop offset="0.1252" stop-color="#FF8E00"/>
<stop offset="0.3317" stop-color="#FF7500"/>
<stop offset="0.5939" stop-color="#FF4C00"/>
<stop offset="0.8988" stop-color="#FF1400"/>
<stop offset="1" stop-color="#FF0000"/>
</linearGradient>
<linearGradient id="paint1_linear_223_900" x1="15.4518" y1="21.7442" x2="3.80375" y2="28.1187" gradientUnits="userSpaceOnUse">
<stop stop-color="#FF9700"/>
<stop offset="0.1252" stop-color="#FF8E00"/>
<stop offset="0.3317" stop-color="#FF7500"/>
<stop offset="0.5939" stop-color="#FF4C00"/>
<stop offset="0.8988" stop-color="#FF1400"/>
<stop offset="1" stop-color="#FF0000"/>
</linearGradient>
<linearGradient id="paint2_linear_223_900" x1="33.6175" y1="0.278543" x2="6.51224" y2="54.0008" gradientUnits="userSpaceOnUse">
<stop stop-color="#FFB74F"/>
<stop offset="0.218012" stop-color="#FF8E00"/>
<stop offset="0.3317" stop-color="#FF7500"/>
<stop offset="0.5939" stop-color="#FF4C00"/>
<stop offset="0.8988" stop-color="#FF1400"/>
<stop offset="1" stop-color="#FF0000"/>
</linearGradient>
<linearGradient id="paint3_linear_223_900" x1="45.8719" y1="18.7522" x2="4.42151" y2="41.4373" gradientUnits="userSpaceOnUse">
<stop stop-color="#FF9700"/>
<stop offset="0.1252" stop-color="#FF8E00"/>
<stop offset="0.3317" stop-color="#FF7500"/>
<stop offset="0.5939" stop-color="#FF4C00"/>
<stop offset="0.8988" stop-color="#FF1400"/>
<stop offset="1" stop-color="#FF0000"/>
</linearGradient>
<linearGradient id="paint4_linear_223_900" x1="45.8118" y1="18.9571" x2="34.1616" y2="25.3302" gradientUnits="userSpaceOnUse">
<stop stop-color="#FF9700"/>
<stop offset="0.1252" stop-color="#FF8E00"/>
<stop offset="0.3317" stop-color="#FF7500"/>
<stop offset="0.5939" stop-color="#FF4C00"/>
<stop offset="0.8988" stop-color="#FF1400"/>
<stop offset="1" stop-color="#FF0000"/>
</linearGradient>
<linearGradient id="paint5_linear_223_900" x1="45.6923" y1="18.7372" x2="34.0445" y2="25.1116" gradientUnits="userSpaceOnUse">
<stop stop-color="#FF9700"/>
<stop offset="0.1252" stop-color="#FF8E00"/>
<stop offset="0.3317" stop-color="#FF7500"/>
<stop offset="0.5939" stop-color="#FF4C00"/>
<stop offset="0.8988" stop-color="#FF1400"/>
<stop offset="1" stop-color="#FF0000"/>
</linearGradient>
<linearGradient id="paint6_linear_223_900" x1="50.4387" y1="27.4161" x2="38.7903" y2="33.7891" gradientUnits="userSpaceOnUse">
<stop stop-color="#FF9700"/>
<stop offset="0.1252" stop-color="#FF8E00"/>
<stop offset="0.3317" stop-color="#FF7500"/>
<stop offset="0.5939" stop-color="#FF4C00"/>
<stop offset="0.8988" stop-color="#FF1400"/>
<stop offset="1" stop-color="#FF0000"/>
</linearGradient>
<linearGradient id="paint7_linear_223_900" x1="45.0085" y1="7.77962" x2="18.5726" y2="62.2496" gradientUnits="userSpaceOnUse">
<stop stop-color="#FF9700"/>
<stop offset="0.1252" stop-color="#FF8E00"/>
<stop offset="0.3317" stop-color="#FF7500"/>
<stop offset="0.5939" stop-color="#FF4C00"/>
<stop offset="0.8988" stop-color="#FF1400"/>
<stop offset="1" stop-color="#FF0000"/>
</linearGradient>
<linearGradient id="paint8_linear_223_900" x1="37.1184" y1="26.1745" x2="60.7143" y2="45.6773" gradientUnits="userSpaceOnUse">
<stop stop-color="#FFA522"/>
<stop offset="0.298461" stop-color="#FF8E00"/>
<stop offset="0.671554" stop-color="#FF7500"/>
<stop offset="1" stop-color="#FF4C00"/>
</linearGradient>
<linearGradient id="paint9_linear_223_900" x1="-36.4285" y1="-3.57001" x2="27.9389" y2="28.0373" gradientUnits="userSpaceOnUse">
<stop stop-color="#FF9700"/>
<stop offset="0.1252" stop-color="#FF8E00"/>
<stop offset="0.437079" stop-color="#FF7500"/>
<stop offset="0.8988" stop-color="#FF1400"/>
</linearGradient>
</defs>
</svg>
