<svg width="1280" height="712" viewBox="0 0 1280 712" fill="none" xmlns="http://www.w3.org/2000/svg">
<path fill-rule="evenodd" clip-rule="evenodd" d="M1288.56 0H1.73648V253.122C-40.4521 263.877 -81.1772 276.005 -120.105 289.446C-245.878 332.899 -352.741 390.022 -429.521 459.023C-432.897 461.965 -435.974 464.905 -439.07 467.863C-440.616 469.34 -442.166 470.822 -443.762 472.311C-505.195 538.7 -446.026 615.979 -309.488 648.574L-309.48 648.576C-302.613 650.096 -295.748 651.615 -289.026 652.946L-289.025 652.946C-287.652 653.25 -286.279 653.554 -284.776 653.728C-282.366 654.182 -279.854 654.619 -277.342 655.056C-274.852 655.489 -272.362 655.922 -269.973 656.372C-248.593 660.157 -226.551 663.613 -204.543 666.43C-91.4937 680.863 28.9662 683.817 149.629 682.863C270.549 681.65 392.612 676.263 515.944 669.26L516.071 669.253C533.089 668.289 550.104 667.325 567.248 666.232C628.43 662.643 689.955 658.709 751.892 654.749C797.395 651.84 843.119 648.917 889.092 646.105L936.601 643.185C941.07 642.936 945.452 642.668 949.87 642.398C961.251 641.702 972.876 640.992 986.84 640.553L1042.14 638.566L1098.74 638.293C1174.82 639.008 1254.64 643.715 1334.29 655.656C1412.84 667.352 1491.1 686.415 1558.84 712C1570.57 581.996 1473.17 454.148 1288.56 357.438V0Z" fill="url(#paint0_linear_223_442)"/>
<defs>
<linearGradient id="paint0_linear_223_442" x1="674.799" y1="253.23" x2="1719.57" y2="1579.57" gradientUnits="userSpaceOnUse">
<stop stop-color="#FFA522"/>
<stop offset="0.298461" stop-color="#FF8E00"/>
<stop offset="0.671554" stop-color="#FF7500"/>
<stop offset="1" stop-color="#FF4C00"/>
</linearGradient>
</defs>
</svg>
