<svg width="20" height="20" viewBox="0 0 20 20" fill="none" xmlns="http://www.w3.org/2000/svg">
<path d="M5.72655 14.2742C4.18905 13.1825 2.97239 11.7625 2.28489 10.8658C2.09264 10.6183 1.98828 10.3138 1.98828 10.0004C1.98828 9.68701 2.09264 9.38253 2.28489 9.13501C3.52905 7.51084 6.51405 4.16667 9.99905 4.16667C11.5624 4.16667 13.0241 4.83917 14.2741 5.72834" stroke="black" stroke-width="2" stroke-linecap="round" stroke-linejoin="round"/>
<path d="M8.33203 15.5867C8.87303 15.7477 9.43424 15.8308 9.9987 15.8333C13.4837 15.8333 16.4687 12.4892 17.7129 10.865C17.9051 10.6173 18.0093 10.3126 18.0092 9.99903C18.009 9.68547 17.9045 9.38089 17.712 9.13334C17.2748 8.56291 16.8057 8.0176 16.307 7.5M11.7737 8.23917C11.5423 8.00389 11.2666 7.81676 10.9625 7.68857C10.6584 7.56039 10.3319 7.49368 10.0019 7.49229C9.67185 7.49091 9.34482 7.55488 9.03966 7.68052C8.73449 7.80615 8.45721 7.99097 8.22383 8.2243C7.99044 8.45763 7.80557 8.73486 7.67986 9.04C7.55415 9.34513 7.4901 9.67214 7.49141 10.0022C7.49271 10.3322 7.55934 10.6587 7.68746 10.9628C7.81558 11.2669 8.00264 11.5427 8.23786 11.7742L11.7737 8.23917ZM3.33203 16.6667L16.6654 3.33334L3.33203 16.6667Z" stroke="black" stroke-width="2" stroke-linecap="round" stroke-linejoin="round"/>
</svg>
