<svg width="21" height="20" viewBox="0 0 21 20" fill="none" xmlns="http://www.w3.org/2000/svg">
<path d="M17.707 8.64062H10.6504V11.541H14.6816C14.5078 12.4785 13.9805 13.2715 13.1855 13.8027C12.5137 14.252 11.6562 14.5176 10.6484 14.5176C8.69726 14.5176 7.04687 13.1992 6.45703 11.4277C6.30859 10.9785 6.22265 10.498 6.22265 10.0039C6.22265 9.50977 6.30859 9.0293 6.45703 8.58008C7.04882 6.81055 8.69921 5.49219 10.6504 5.49219C11.75 5.49219 12.7363 5.87109 13.5137 6.61328L15.6621 4.46289C14.3633 3.25195 12.6699 2.50977 10.6504 2.50977C7.72265 2.50977 5.18945 4.18945 3.95703 6.63867C3.44922 7.65039 3.16016 8.79492 3.16016 10.0059C3.16016 11.2168 3.44922 12.3594 3.95703 13.3711C5.18945 15.8203 7.72265 17.5 10.6504 17.5C12.6738 17.5 14.3691 16.8281 15.6074 15.6836C17.0234 14.3789 17.8418 12.457 17.8418 10.1738C17.8418 9.64258 17.7949 9.13281 17.707 8.64062Z" fill="#11100E"/>
</svg>
