<svg width="33" height="30" viewBox="0 0 33 30" fill="none" xmlns="http://www.w3.org/2000/svg">
<g clip-path="url(#clip0_185_2304)">
<path d="M19.2858 4.28563C19.2858 3.14901 19.7373 2.05894 20.541 1.25523C21.3447 0.45152 22.4348 0 23.5714 0H27.857C28.9936 0 30.0837 0.45152 30.8874 1.25523C31.6911 2.05894 32.1427 3.14901 32.1427 4.28563V8.57125C32.1427 9.70787 31.6911 10.7979 30.8874 11.6016C30.0837 12.4054 28.9936 12.8569 27.857 12.8569H23.5714C22.4348 12.8569 21.3447 12.4054 20.541 11.6016C19.7373 10.7979 19.2858 9.70787 19.2858 8.57125V4.28563ZM6.24248 1.44426C6.45802 1.01084 6.79022 0.646155 7.20171 0.391229C7.6132 0.136302 8.08766 0.0012435 8.57171 0.0012435C9.05577 0.0012435 9.53023 0.136302 9.94172 0.391229C10.3532 0.646155 10.6854 1.01084 10.901 1.44426L14.7152 9.02338C15.5937 10.7783 14.3316 12.8569 12.3816 12.8569H4.75751C2.80755 12.8569 1.54329 10.7783 2.42827 9.02124L6.24033 1.44426H6.24248ZM8.98528 2.40852C8.94816 2.32994 8.88948 2.26353 8.81607 2.21702C8.74266 2.17051 8.65755 2.14581 8.57064 2.14581C8.48374 2.14581 8.39862 2.17051 8.32521 2.21702C8.25181 2.26353 8.19312 2.32994 8.15601 2.40852L4.34394 9.98551C4.30431 10.0594 4.28409 10.1421 4.28519 10.226C4.28628 10.3098 4.30866 10.392 4.35021 10.4648C4.39176 10.5376 4.45113 10.5987 4.52274 10.6423C4.59436 10.6859 4.67588 10.7106 4.75965 10.7141H12.3859C12.7073 10.7141 12.9838 10.3476 12.8016 9.98551L8.98742 2.40638L8.98528 2.40852ZM15.0002 23.5709C15.0002 25.2759 14.3229 26.911 13.1173 28.1165C11.9117 29.3221 10.2766 29.9994 8.57171 29.9994C6.86679 29.9994 5.23169 29.3221 4.02612 28.1165C2.82056 26.911 2.14328 25.2759 2.14328 23.5709C2.14328 21.866 2.82056 20.2309 4.02612 19.0253C5.23169 17.8198 6.86679 17.1425 8.57171 17.1425C10.2766 17.1425 11.9117 17.8198 13.1173 19.0253C14.3229 20.2309 15.0002 21.866 15.0002 23.5709ZM12.8573 23.5709C12.8574 22.8152 12.6577 22.0729 12.2784 21.4193C11.8991 20.7657 11.3538 20.224 10.6976 19.8491C10.0414 19.4743 9.29778 19.2796 8.5421 19.2848C7.78641 19.29 7.04555 19.495 6.39462 19.8789L12.2659 25.748C12.6549 25.0886 12.8592 24.3366 12.8573 23.5709ZM8.57171 27.8566C9.36455 27.8566 10.1103 27.6401 10.7488 27.263L4.8775 21.3938C4.49352 22.0449 4.28856 22.786 4.28343 23.5419C4.2783 24.2977 4.47318 25.0415 4.8483 25.6977C5.22341 26.354 5.76542 26.8993 6.41934 27.2785C7.07326 27.6576 7.81583 27.8571 8.57171 27.8566ZM24.9428 17.3289C25.1814 17.206 25.4458 17.1419 25.7142 17.1419C25.9826 17.1419 26.2471 17.206 26.4856 17.3289L31.2641 19.7974C31.527 19.9312 31.748 20.1346 31.903 20.3856C32.058 20.6366 32.1409 20.9253 32.1427 21.2203V25.9216C32.1409 26.2166 32.058 26.5053 31.903 26.7563C31.748 27.0072 31.527 27.2107 31.2641 27.3444L26.4856 29.813C26.2471 29.9359 25.9826 30 25.7142 30C25.4458 30 25.1814 29.9359 24.9428 29.813L20.1643 27.3444C19.9014 27.2107 19.6804 27.0072 19.5254 26.7563C19.3705 26.5053 19.2876 26.2166 19.2858 25.9216V21.2203C19.2876 20.9253 19.3705 20.6366 19.5254 20.3856C19.6804 20.1346 19.9014 19.9312 20.1643 19.7974L24.9428 17.3289ZM21.4286 21.5567V25.5852L25.7142 27.7987L29.9998 25.5852V21.5567L25.7142 19.3432L21.4286 21.5567Z" fill="black"/>
</g>
<defs>
<clipPath id="clip0_185_2304">
<rect width="32.1422" height="30" fill="white"/>
</clipPath>
</defs>
</svg>
