<svg width="21" height="21" viewBox="0 0 21 21" fill="none" xmlns="http://www.w3.org/2000/svg">
<path d="M11.2143 17.6429H12.6429M8.35714 3.35714H9.78571H8.35714ZM6.21429 5.5V1.92857C6.21429 1.54969 6.3648 1.18633 6.63271 0.918419C6.90061 0.65051 7.26398 0.5 7.64286 0.5H13.3571C13.736 0.5 14.0994 0.65051 14.3673 0.918419C14.6352 1.18633 14.7857 1.54969 14.7857 1.92857V9.07143C14.7857 9.45031 14.6352 9.81367 14.3673 10.0816C14.0994 10.3495 13.736 10.5 13.3571 10.5H7.64286C7.26398 10.5 6.90061 10.6505 6.63271 10.9184C6.3648 11.1863 6.21429 11.5497 6.21429 11.9286V19.0714C6.21429 19.4503 6.3648 19.8137 6.63271 20.0816C6.90061 20.3495 7.26398 20.5 7.64286 20.5H13.3571C13.736 20.5 14.0994 20.3495 14.3673 20.0816C14.6352 19.8137 14.7857 19.4503 14.7857 19.0714V15.5L6.21429 5.5ZM11.2143 6.21429H1.92857C1.54969 6.21429 1.18633 6.3648 0.918419 6.63271C0.65051 6.90061 0.5 7.26398 0.5 7.64286V14.7857C0.5 15.1646 0.65051 15.528 0.918419 15.7959C1.18633 16.0638 1.54969 16.2143 1.92857 16.2143H6.21429L11.2143 6.21429ZM9.78571 14.7857H19.0714C19.4503 14.7857 19.8137 14.6352 20.0816 14.3673C20.3495 14.0994 20.5 13.736 20.5 13.3571V6.21429C20.5 5.83541 20.3495 5.47204 20.0816 5.20413C19.8137 4.93622 19.4503 4.78571 19.0714 4.78571H14.7857L9.78571 14.7857Z" stroke="black"/>
</svg>
