<svg width="212" height="71" viewBox="0 0 212 71" fill="none" xmlns="http://www.w3.org/2000/svg">
<g clip-path="url(#clip0_287_2449)">
<path d="M45.0234 23.8875L63.3362 33.4162C63.7318 33.6221 64.0634 33.9326 64.2947 34.3138C64.5261 34.6951 64.6485 35.1325 64.6485 35.5785C64.6485 36.0245 64.5261 36.4619 64.2947 36.8431C64.0634 37.2244 63.7318 37.5349 63.3362 37.7407L45.0234 47.2695C44.6519 47.4628 44.2369 47.5571 43.8183 47.5433C43.3997 47.5295 42.9917 47.4082 42.6337 47.1909C42.2757 46.9736 41.9797 46.6677 41.7743 46.3027C41.5689 45.9378 41.461 45.526 41.4609 45.1072V26.0497C41.4608 25.645 41.5615 25.2466 41.7538 24.8906C41.9462 24.5345 42.2242 24.2319 42.5627 24.0101C42.9013 23.7883 43.2897 23.6544 43.693 23.6202C44.0963 23.5861 44.5017 23.653 44.8727 23.8147L45.0234 23.8875Z" fill="#11100E"/>
</g>
<path d="M78.9334 41.5784H76.0934V28.2384H82.3334C83.7334 28.2384 84.8268 28.6517 85.6134 29.4784C86.4134 30.2917 86.8134 31.3117 86.8134 32.5384C86.8134 33.7517 86.4134 34.7717 85.6134 35.5984C84.8134 36.425 83.7201 36.8384 82.3334 36.8384H78.9334V41.5784ZM81.9534 34.3384C82.5268 34.3384 82.9934 34.1784 83.3534 33.8584C83.7268 33.525 83.9134 33.085 83.9134 32.5384C83.9134 31.9917 83.7268 31.5584 83.3534 31.2384C82.9934 30.905 82.5268 30.7384 81.9534 30.7384H78.9334V34.3384H81.9534ZM91.0539 41.5784H88.5139V28.2384H91.0539V41.5784ZM101.913 41.5784H99.3725V40.5784C98.6792 41.405 97.6592 41.8184 96.3125 41.8184C95.4458 41.8184 94.6658 41.5384 93.9725 40.9784C93.2925 40.405 92.9525 39.6184 92.9525 38.6184C92.9525 37.5784 93.2858 36.7984 93.9525 36.2784C94.6325 35.7584 95.4192 35.4984 96.3125 35.4984C97.6858 35.4984 98.7058 35.8917 99.3725 36.6784V35.3784C99.3725 34.885 99.1792 34.4917 98.7925 34.1984C98.4058 33.905 97.8925 33.7584 97.2525 33.7584C96.1992 33.7584 95.2592 34.1384 94.4325 34.8984L93.4725 33.1984C94.6192 32.185 96.0258 31.6784 97.6925 31.6784C98.9325 31.6784 99.9458 31.965 100.733 32.5384C101.519 33.1117 101.913 34.045 101.913 35.3384V41.5784ZM97.3325 40.0984C98.2792 40.0984 98.9592 39.8184 99.3725 39.2584V38.0584C98.9592 37.4984 98.2792 37.2184 97.3325 37.2184C96.8125 37.2184 96.3792 37.3517 96.0325 37.6184C95.6858 37.8717 95.5125 38.225 95.5125 38.6784C95.5125 39.1184 95.6858 39.465 96.0325 39.7184C96.3792 39.9717 96.8125 40.0984 97.3325 40.0984ZM104.092 45.3584L104.472 43.0784C104.712 43.185 104.979 43.2384 105.272 43.2384C105.952 43.2384 106.399 43.005 106.612 42.5384L106.972 41.7184L103.052 31.9184H105.772L108.292 38.6384L110.812 31.9184H113.552L109.012 43.1584C108.679 44.0117 108.212 44.605 107.612 44.9384C107.012 45.285 106.259 45.4717 105.352 45.4984C104.885 45.4984 104.465 45.4517 104.092 45.3584ZM127.163 41.5784H123.603L118.443 28.2384H121.683L125.383 38.4984L129.063 28.2384H132.303L127.163 41.5784ZM134.735 30.8784C134.322 30.8784 133.962 30.7317 133.655 30.4384C133.362 30.1317 133.215 29.7717 133.215 29.3584C133.215 28.945 133.362 28.5917 133.655 28.2984C133.962 28.005 134.322 27.8584 134.735 27.8584C135.162 27.8584 135.522 28.005 135.815 28.2984C136.108 28.5917 136.255 28.945 136.255 29.3584C136.255 29.7717 136.108 30.1317 135.815 30.4384C135.522 30.7317 135.162 30.8784 134.735 30.8784ZM136.015 41.5784H133.475V31.9184H136.015V41.5784ZM147.733 41.5784H145.173V40.3384C144.387 41.325 143.393 41.8184 142.193 41.8184C140.94 41.8184 139.913 41.3717 139.113 40.4784C138.313 39.5717 137.913 38.3317 137.913 36.7584C137.913 35.2117 138.313 33.9784 139.113 33.0584C139.913 32.1384 140.94 31.6784 142.193 31.6784C143.42 31.6784 144.413 32.1717 145.173 33.1584V28.2384H147.733V41.5784ZM142.973 39.5584C143.4 39.5584 143.82 39.4584 144.233 39.2584C144.647 39.045 144.96 38.7784 145.173 38.4584V35.0384C144.96 34.7184 144.647 34.4584 144.233 34.2584C143.82 34.045 143.4 33.9384 142.973 33.9384C142.253 33.9384 141.667 34.1984 141.213 34.7184C140.76 35.2384 140.533 35.9184 140.533 36.7584C140.533 37.585 140.76 38.2584 141.213 38.7784C141.667 39.2984 142.253 39.5584 142.973 39.5584ZM154.792 41.8184C153.299 41.8184 152.066 41.3517 151.092 40.4184C150.119 39.485 149.632 38.2584 149.632 36.7384C149.632 35.3117 150.099 34.1117 151.032 33.1384C151.979 32.165 153.179 31.6784 154.632 31.6784C156.072 31.6784 157.239 32.1717 158.132 33.1584C159.026 34.1317 159.472 35.4117 159.472 36.9984V37.5584H152.292C152.372 38.1984 152.659 38.7317 153.152 39.1584C153.646 39.585 154.286 39.7984 155.072 39.7984C155.499 39.7984 155.959 39.7117 156.452 39.5384C156.959 39.365 157.359 39.1317 157.652 38.8384L158.772 40.4784C157.799 41.3717 156.472 41.8184 154.792 41.8184ZM157.012 35.8384C156.972 35.2917 156.752 34.7984 156.352 34.3584C155.966 33.9184 155.392 33.6984 154.632 33.6984C153.912 33.6984 153.352 33.9184 152.952 34.3584C152.552 34.785 152.319 35.2784 152.252 35.8384H157.012ZM169.507 40.3584C168.574 41.3317 167.334 41.8184 165.787 41.8184C164.24 41.8184 163 41.3317 162.067 40.3584C161.147 39.3717 160.687 38.165 160.687 36.7384C160.687 35.3117 161.147 34.1117 162.067 33.1384C163 32.165 164.24 31.6784 165.787 31.6784C167.334 31.6784 168.574 32.165 169.507 33.1384C170.44 34.1117 170.907 35.3117 170.907 36.7384C170.907 38.165 170.44 39.3717 169.507 40.3584ZM163.987 38.7584C164.427 39.2917 165.027 39.5584 165.787 39.5584C166.547 39.5584 167.147 39.2917 167.587 38.7584C168.04 38.2117 168.267 37.5384 168.267 36.7384C168.267 35.9517 168.04 35.2917 167.587 34.7584C167.147 34.2117 166.547 33.9384 165.787 33.9384C165.027 33.9384 164.427 34.2117 163.987 34.7584C163.547 35.2917 163.327 35.9517 163.327 36.7384C163.327 37.5384 163.547 38.2117 163.987 38.7584Z" fill="#11100E"/>
<defs>
<clipPath id="clip0_287_2449">
<rect width="24" height="24" fill="white" transform="translate(40.7734 23.5784)"/>
</clipPath>
</defs>
</svg>
