<svg width="240" height="56" viewBox="0 0 240 56" fill="none" xmlns="http://www.w3.org/2000/svg">
<g clip-path="url(#clip0_287_2052)">
<path d="M96.4676 16.392V42.9564H91.5345V31.5716H77.7964V42.9564H72.8633V16.392H77.7964V27.3593H91.5345V16.392H96.4676Z" fill="#3C3C3C"/>
<path d="M102.75 22.6916H107.494V42.9564H102.75V22.6916ZM105.141 19.3521C104.281 19.3521 103.56 19.0864 102.978 18.5551C102.396 17.9985 102.105 17.3154 102.105 16.5059C102.105 15.6963 102.396 15.0258 102.978 14.4946C103.56 13.9379 104.281 13.6597 105.141 13.6597C106.002 13.6597 106.722 13.9253 107.304 14.4566C107.886 14.9626 108.177 15.6078 108.177 16.392C108.177 17.2269 107.886 17.9353 107.304 18.5171C106.748 19.0738 106.027 19.3521 105.141 19.3521Z" fill="#3C3C3C"/>
<path d="M117.858 25.6516C119.224 23.5264 121.627 22.4639 125.069 22.4639V26.9798C124.664 26.9039 124.297 26.8659 123.968 26.8659C122.121 26.8659 120.679 27.4099 119.642 28.4977C118.604 29.5604 118.086 31.1036 118.086 33.1276V42.9564H113.342V22.6916H117.858V25.6516Z" fill="#3C3C3C"/>
<path d="M138.166 39.1994C140.367 39.1994 142.201 38.4657 143.669 36.9984L146.174 39.9204C145.288 41.0083 144.149 41.8306 142.758 42.3871C141.366 42.9437 139.798 43.222 138.052 43.222C135.826 43.222 133.865 42.7793 132.17 41.8938C130.475 41.0083 129.159 39.7813 128.224 38.2127C127.312 36.6189 126.857 34.8226 126.857 32.8239C126.857 30.8506 127.3 29.0797 128.186 27.5111C129.096 25.9172 130.336 24.6776 131.904 23.7921C133.499 22.9066 135.295 22.4639 137.293 22.4639C139.191 22.4639 140.911 22.8813 142.454 23.7162C144.023 24.5257 145.262 25.7022 146.174 27.2454C147.084 28.7634 147.539 30.547 147.539 32.5962L132.018 35.6322C132.499 36.796 133.271 37.6814 134.333 38.2886C135.396 38.8958 136.674 39.1994 138.166 39.1994ZM137.293 26.2587C135.547 26.2587 134.131 26.828 133.043 27.9665C131.981 29.1049 131.449 30.6356 131.449 32.5583V32.5962L142.91 30.3952C142.581 29.1556 141.911 28.1562 140.899 27.3972C139.912 26.6382 138.71 26.2587 137.293 26.2587Z" fill="#3C3C3C"/>
<path d="M163.103 41.8559C162.546 42.3112 161.863 42.6528 161.054 42.8805C160.27 43.1082 159.435 43.222 158.549 43.222C156.323 43.222 154.603 42.6401 153.388 41.4764C152.174 40.3126 151.566 38.6176 151.566 36.3912V18.2136H156.31V22.8434H161.737V26.6382H156.31V36.2773C156.31 37.264 156.551 38.023 157.031 38.5543C157.537 39.0602 158.233 39.3132 159.118 39.3132C160.181 39.3132 161.066 39.035 161.775 38.4784L163.103 41.8559Z" fill="#3C3C3C"/>
<path d="M175.615 39.1994C177.817 39.1994 179.651 38.4657 181.118 36.9984L183.623 39.9204C182.737 41.0083 181.599 41.8306 180.207 42.3871C178.816 42.9437 177.247 43.222 175.502 43.222C173.275 43.222 171.315 42.7793 169.62 41.8938C167.925 41.0083 166.609 39.7813 165.673 38.2127C164.762 36.6189 164.307 34.8226 164.307 32.8239C164.307 30.8506 164.749 29.0797 165.635 27.5111C166.545 25.9172 167.785 24.6776 169.354 23.7921C170.948 22.9066 172.744 22.4639 174.743 22.4639C176.64 22.4639 178.36 22.8813 179.904 23.7162C181.472 24.5257 182.712 25.7022 183.623 27.2454C184.534 28.7634 184.989 30.547 184.989 32.5962L169.468 35.6322C169.949 36.796 170.72 37.6814 171.783 38.2886C172.845 38.8958 174.123 39.1994 175.615 39.1994ZM174.743 26.2587C172.997 26.2587 171.58 26.828 170.492 27.9665C169.43 29.1049 168.899 30.6356 168.899 32.5583V32.5962L180.359 30.3952C180.03 29.1556 179.36 28.1562 178.348 27.3972C177.361 26.6382 176.159 26.2587 174.743 26.2587Z" fill="#3C3C3C"/>
<path d="M193.682 25.6516C195.049 23.5264 197.452 22.4639 200.892 22.4639V26.9798C200.488 26.9039 200.121 26.8659 199.792 26.8659C197.945 26.8659 196.503 27.4099 195.466 28.4977C194.429 29.5604 193.91 31.1036 193.91 33.1276V42.9564H189.166V22.6916H193.682V25.6516Z" fill="#3C3C3C"/>
<path d="M209.055 25.6516C210.421 23.5264 212.825 22.4639 216.265 22.4639V26.9798C215.86 26.9039 215.493 26.8659 215.165 26.8659C213.318 26.8659 211.876 27.4099 210.838 28.4977C209.801 29.5604 209.283 31.1036 209.283 33.1276V42.9564H204.539V22.6916H209.055V25.6516Z" fill="#3C3C3C"/>
<path d="M239.534 22.6916V42.9564H235.018V40.3379C234.233 41.2992 233.26 42.0203 232.096 42.501C230.957 42.9817 229.692 43.222 228.301 43.222C226.328 43.222 224.557 42.7919 222.988 41.9317C221.445 41.0716 220.23 39.8572 219.345 38.2886C218.485 36.7201 218.055 34.8985 218.055 32.8239C218.055 30.7494 218.485 28.9405 219.345 27.3972C220.23 25.8287 221.445 24.6143 222.988 23.7541C224.557 22.8939 226.328 22.4639 228.301 22.4639C229.617 22.4639 230.818 22.6916 231.906 23.1469C233.019 23.6023 233.981 24.2727 234.79 25.1582V22.6916H239.534ZM228.832 39.1615C230.578 39.1615 232.02 38.5796 233.158 37.4158C234.297 36.2521 234.866 34.7214 234.866 32.8239C234.866 30.9265 234.297 29.3959 233.158 28.2321C232.02 27.0684 230.578 26.4864 228.832 26.4864C227.087 26.4864 225.645 27.0684 224.506 28.2321C223.393 29.3959 222.837 30.9265 222.837 32.8239C222.837 34.7214 223.393 36.2521 224.506 37.4158C225.645 38.5796 227.087 39.1615 228.832 39.1615Z" fill="#3C3C3C"/>
<path d="M6.99906 28.4779C7.06906 28.4779 7.139 28.4779 7.20125 28.4779C7.06125 28.4779 6.92125 28.4701 6.78906 28.4546C6.85906 28.4624 6.92906 28.4701 6.99906 28.4779Z" fill="url(#paint0_linear_287_2052)"/>
<path d="M6.78788 28.4535C6.70231 28.4457 6.61681 28.4379 6.53125 28.4302C6.61681 28.4379 6.70231 28.4457 6.78788 28.4535Z" fill="url(#paint1_linear_287_2052)"/>
<path d="M0.482141 18.4769C4.06709 7.76088 14.1687 0 26.0978 0C38.5713 0 49.0694 8.46081 52.1878 19.9544C50.9202 19.0834 49.4816 18.4302 47.9729 18.0181C46.2855 17.5592 44.5358 17.3882 42.8094 17.4115C39.3411 17.4581 35.9973 18.2514 32.7856 19.2156C29.5816 20.2033 26.4866 21.4164 23.4616 22.6839C20.4365 23.9515 17.4737 25.2812 14.542 26.5488L13.4455 27.0232C13.08 27.1787 12.6989 27.3498 12.4034 27.4509L11.4625 27.8008L10.5293 28.073C9.50281 28.3374 8.51525 28.4774 7.58981 28.4852C7.46537 28.4852 7.341 28.4852 7.21656 28.4852C7.07656 28.4852 6.93663 28.4774 6.80438 28.4618C6.71887 28.4541 6.63331 28.4463 6.54775 28.4385C2.85396 27.9952 0 24.8769 0 21.082C0 21.082 0 19.7911 0.482141 18.4769Z" fill="url(#paint2_linear_287_2052)"/>
<path d="M45.2422 21.812C45.2811 21.812 45.3199 21.8042 45.3588 21.8042C45.3122 21.812 45.2811 21.812 45.2422 21.812Z" fill="url(#paint3_linear_287_2052)"/>
<path d="M45.7249 21.7896C45.6004 21.7896 45.476 21.8051 45.3594 21.8051C45.5538 21.7973 45.7482 21.7973 45.9348 21.7973C45.8648 21.7973 45.7948 21.7896 45.7249 21.7896Z" fill="url(#paint4_linear_287_2052)"/>
<path d="M44.832 21.8524C44.9642 21.8446 45.1042 21.8291 45.2364 21.8213C45.1042 21.8213 44.972 21.8291 44.832 21.8524Z" fill="url(#paint5_linear_287_2052)"/>
<path d="M53.119 28.9917C53.1113 29.2639 53.1113 29.5361 53.0957 29.8004C53.1113 29.5983 53.1268 29.3961 53.1268 29.1939C53.1268 29.1239 53.119 29.0617 53.119 28.9917Z" fill="url(#paint6_linear_287_2052)"/>
<path d="M45.935 21.7969C45.7406 21.7969 45.5462 21.7969 45.3595 21.8046C45.3206 21.8046 45.2818 21.8046 45.2429 21.8124C45.1107 21.8202 44.9707 21.8357 44.8385 21.8436C44.2553 21.8902 43.6643 21.9602 43.0888 22.0613C40.1338 22.5823 37.272 23.7487 34.4958 25.1096C31.7196 26.4861 29.0134 28.0802 26.315 29.7677C25.9417 30.0011 25.5684 30.2343 25.1952 30.4754C22.8778 31.9374 20.5604 33.4616 18.1964 34.9702L17.1621 35.6312C16.8121 35.8489 16.4933 36.0667 16.0578 36.3077L14.8214 37.0076L13.5149 37.6375C11.7341 38.4307 9.77444 39.0684 7.6515 39.3483C5.55961 39.6283 3.30443 39.5427 1.14258 39.0217C5.22522 48.7734 14.8525 55.6322 26.0894 55.6322C36.3388 55.6322 45.2506 49.9321 49.8388 41.5257C51.7518 38.0186 52.9104 34.0448 53.0971 29.8144C53.1126 29.5422 53.1126 29.2778 53.1205 29.0056C53.0116 25.0708 49.8543 21.9135 45.935 21.7969Z" fill="url(#paint7_linear_287_2052)"/>
<path d="M45.9348 21.7969C45.7404 21.7969 45.546 21.7969 45.3594 21.8046C45.3205 21.8046 45.2816 21.8046 45.2428 21.8124C45.1106 21.8202 44.9706 21.8357 44.8384 21.8436C44.2551 21.8902 43.6641 21.9602 43.0886 22.0613C40.1336 22.5823 37.2719 23.7487 34.4957 25.1096C31.7195 26.4861 29.0133 28.0802 26.3148 29.7677C25.9416 30.0011 25.5683 30.2343 25.195 30.4754C24.0519 31.1986 22.9087 31.9296 21.7656 32.6761C47.9178 21.1826 51.1606 38.6718 51.1684 38.7107C52.2882 35.9422 52.9648 32.9406 53.1047 29.8066C53.1203 29.5344 53.1203 29.2701 53.1281 28.9979C53.0114 25.0707 49.8542 21.9135 45.9348 21.7969Z" fill="url(#paint8_linear_287_2052)"/>
<path d="M6.66444 8.29102C3.91156 11.1605 1.77303 14.6211 0.482141 18.4782C0 19.7924 0 21.0833 0 21.0833C0 24.8782 2.85396 28.0043 6.53225 28.4321C6.61775 28.4398 6.70331 28.4476 6.78887 28.4554C6.92881 28.4631 7.06881 28.471 7.201 28.4787C7.32544 28.4787 7.44987 28.4787 7.57425 28.4787C8.49969 28.4631 9.49506 28.331 10.5138 28.0666L11.4469 27.7944L12.3879 27.4445C12.6834 27.3433 13.0722 27.1723 13.4299 27.0168L14.5264 26.5424C17.4581 25.2748 20.421 23.945 23.446 22.6775C25.2191 21.931 27.0154 21.2155 28.8429 20.5467V20.539C-0.637667 28.852 6.62556 8.4077 6.66444 8.29102Z" fill="url(#paint9_linear_287_2052)"/>
</g>
<defs>
<linearGradient id="paint0_linear_287_2052" x1="44.6757" y1="7.85426" x2="4.38629" y2="29.9018" gradientUnits="userSpaceOnUse">
<stop stop-color="#FF9700"/>
<stop offset="0.1252" stop-color="#FF8E00"/>
<stop offset="0.3317" stop-color="#FF7500"/>
<stop offset="0.5939" stop-color="#FF4C00"/>
<stop offset="0.8988" stop-color="#FF1400"/>
<stop offset="1" stop-color="#FF0000"/>
</linearGradient>
<linearGradient id="paint1_linear_287_2052" x1="16.4189" y1="23.1049" x2="4.04192" y2="29.8783" gradientUnits="userSpaceOnUse">
<stop stop-color="#FF9700"/>
<stop offset="0.1252" stop-color="#FF8E00"/>
<stop offset="0.3317" stop-color="#FF7500"/>
<stop offset="0.5939" stop-color="#FF4C00"/>
<stop offset="0.8988" stop-color="#FF1400"/>
<stop offset="1" stop-color="#FF0000"/>
</linearGradient>
<linearGradient id="paint2_linear_287_2052" x1="35.7212" y1="0.295973" x2="6.91975" y2="57.3799" gradientUnits="userSpaceOnUse">
<stop stop-color="#FFB74F"/>
<stop offset="0.218012" stop-color="#FF8E00"/>
<stop offset="0.3317" stop-color="#FF7500"/>
<stop offset="0.5939" stop-color="#FF4C00"/>
<stop offset="0.8988" stop-color="#FF1400"/>
<stop offset="1" stop-color="#FF0000"/>
</linearGradient>
<linearGradient id="paint3_linear_287_2052" x1="48.7421" y1="19.9257" x2="4.69788" y2="44.0302" gradientUnits="userSpaceOnUse">
<stop stop-color="#FF9700"/>
<stop offset="0.1252" stop-color="#FF8E00"/>
<stop offset="0.3317" stop-color="#FF7500"/>
<stop offset="0.5939" stop-color="#FF4C00"/>
<stop offset="0.8988" stop-color="#FF1400"/>
<stop offset="1" stop-color="#FF0000"/>
</linearGradient>
<linearGradient id="paint4_linear_287_2052" x1="48.6792" y1="20.1433" x2="36.3" y2="26.9153" gradientUnits="userSpaceOnUse">
<stop stop-color="#FF9700"/>
<stop offset="0.1252" stop-color="#FF8E00"/>
<stop offset="0.3317" stop-color="#FF7500"/>
<stop offset="0.5939" stop-color="#FF4C00"/>
<stop offset="0.8988" stop-color="#FF1400"/>
<stop offset="1" stop-color="#FF0000"/>
</linearGradient>
<linearGradient id="paint5_linear_287_2052" x1="48.552" y1="19.9097" x2="36.1754" y2="26.683" gradientUnits="userSpaceOnUse">
<stop stop-color="#FF9700"/>
<stop offset="0.1252" stop-color="#FF8E00"/>
<stop offset="0.3317" stop-color="#FF7500"/>
<stop offset="0.5939" stop-color="#FF4C00"/>
<stop offset="0.8988" stop-color="#FF1400"/>
<stop offset="1" stop-color="#FF0000"/>
</linearGradient>
<linearGradient id="paint6_linear_287_2052" x1="53.5951" y1="29.1316" x2="41.2177" y2="35.9035" gradientUnits="userSpaceOnUse">
<stop stop-color="#FF9700"/>
<stop offset="0.1252" stop-color="#FF8E00"/>
<stop offset="0.3317" stop-color="#FF7500"/>
<stop offset="0.5939" stop-color="#FF4C00"/>
<stop offset="0.8988" stop-color="#FF1400"/>
<stop offset="1" stop-color="#FF0000"/>
</linearGradient>
<linearGradient id="paint7_linear_287_2052" x1="47.824" y1="8.2665" x2="19.7338" y2="66.145" gradientUnits="userSpaceOnUse">
<stop stop-color="#FF9700"/>
<stop offset="0.1252" stop-color="#FF8E00"/>
<stop offset="0.3317" stop-color="#FF7500"/>
<stop offset="0.5939" stop-color="#FF4C00"/>
<stop offset="0.8988" stop-color="#FF1400"/>
<stop offset="1" stop-color="#FF0000"/>
</linearGradient>
<linearGradient id="paint8_linear_287_2052" x1="39.4406" y1="27.8124" x2="64.513" y2="48.5357" gradientUnits="userSpaceOnUse">
<stop stop-color="#FFA522"/>
<stop offset="0.298461" stop-color="#FF8E00"/>
<stop offset="0.671554" stop-color="#FF7500"/>
<stop offset="1" stop-color="#FF4C00"/>
</linearGradient>
<linearGradient id="paint9_linear_287_2052" x1="-38.7081" y1="-3.79339" x2="29.6872" y2="29.7918" gradientUnits="userSpaceOnUse">
<stop stop-color="#FF9700"/>
<stop offset="0.1252" stop-color="#FF8E00"/>
<stop offset="0.437079" stop-color="#FF7500"/>
<stop offset="0.8988" stop-color="#FF1400"/>
</linearGradient>
<clipPath id="clip0_287_2052">
<rect width="240" height="55.625" fill="white"/>
</clipPath>
</defs>
</svg>
