<svg width="180" height="42" viewBox="0 0 180 42" fill="none" xmlns="http://www.w3.org/2000/svg">
<g clip-path="url(#clip0_287_2573)">
<path d="M72.3517 12.2939V32.2172H68.6519V23.6787H58.3483V32.2172H54.6484V12.2939H58.3483V20.5194H68.6519V12.2939H72.3517Z" fill="white"/>
<path d="M77.0638 17.0185H80.6216V32.2171H77.0638V17.0185ZM78.8568 14.5139C78.2118 14.5139 77.6713 14.3146 77.2345 13.9162C76.7981 13.4987 76.5801 12.9864 76.5801 12.3793C76.5801 11.7721 76.7981 11.2692 77.2345 10.8708C77.6713 10.4533 78.2118 10.2446 78.8568 10.2446C79.5023 10.2446 80.0427 10.4438 80.4791 10.8423C80.9156 11.2218 81.134 11.7057 81.134 12.2939C81.134 12.92 80.9156 13.4513 80.4791 13.8877C80.062 14.3052 79.521 14.5139 78.8568 14.5139Z" fill="white"/>
<path d="M88.3931 19.2389C89.4177 17.6451 91.2201 16.8481 93.801 16.8481V20.2351C93.4973 20.1782 93.2221 20.1497 92.9756 20.1497C91.5904 20.1497 90.5085 20.5576 89.7309 21.3736C88.9527 22.1705 88.5637 23.328 88.5637 24.8459V32.2175H85.0059V17.0189H88.3931V19.2389Z" fill="white"/>
<path d="M103.624 29.3998C105.275 29.3998 106.65 28.8495 107.751 27.749L109.63 29.9406C108.966 30.7565 108.111 31.3732 107.068 31.7906C106.024 32.208 104.848 32.4167 103.539 32.4167C101.869 32.4167 100.398 32.0847 99.127 31.4206C97.8557 30.7565 96.869 29.8362 96.1673 28.6598C95.4838 27.4644 95.1426 26.1172 95.1426 24.6182C95.1426 23.1382 95.4745 21.81 96.1387 20.6336C96.8216 19.4382 97.7516 18.5084 98.9277 17.8443C100.124 17.1802 101.471 16.8481 102.969 16.8481C104.392 16.8481 105.683 17.1612 106.84 17.7874C108.017 18.3946 108.946 19.2769 109.63 20.4343C110.313 21.5728 110.654 22.9105 110.654 24.4474L99.013 26.7244C99.374 27.5972 99.9524 28.2613 100.749 28.7167C101.546 29.1721 102.505 29.3998 103.624 29.3998ZM102.969 19.6943C101.66 19.6943 100.597 20.1212 99.7818 20.9751C98.9849 21.8289 98.5865 22.9769 98.5865 24.419V24.4474L107.182 22.7967C106.935 21.8669 106.432 21.1174 105.674 20.5482C104.933 19.9789 104.032 19.6943 102.969 19.6943Z" fill="white"/>
<path d="M122.326 31.3919C121.909 31.7334 121.396 31.9896 120.789 32.1604C120.201 32.3311 119.575 32.4165 118.911 32.4165C117.241 32.4165 115.951 31.9801 115.04 31.1073C114.129 30.2345 113.674 28.9632 113.674 27.2934V13.6602H117.232V17.1325H121.302V19.9787H117.232V27.208C117.232 27.948 117.412 28.5172 117.773 28.9157C118.152 29.2952 118.674 29.4849 119.338 29.4849C120.135 29.4849 120.799 29.2762 121.33 28.8588L122.326 31.3919Z" fill="white"/>
<path d="M131.712 29.3998C133.363 29.3998 134.739 28.8495 135.839 27.749L137.718 29.9406C137.053 30.7565 136.199 31.3732 135.156 31.7906C134.113 32.208 132.936 32.4167 131.627 32.4167C129.957 32.4167 128.487 32.0847 127.215 31.4206C125.944 30.7565 124.957 29.8362 124.255 28.6598C123.572 27.4644 123.23 26.1172 123.23 24.6182C123.23 23.1382 123.562 21.81 124.227 20.6336C124.91 19.4382 125.84 18.5084 127.016 17.8443C128.211 17.1802 129.559 16.8481 131.058 16.8481C132.481 16.8481 133.771 17.1612 134.928 17.7874C136.105 18.3946 137.035 19.2769 137.718 20.4343C138.401 21.5728 138.742 22.9105 138.742 24.4474L127.101 26.7244C127.462 27.5972 128.04 28.2613 128.838 28.7167C129.635 29.1721 130.593 29.3998 131.712 29.3998ZM131.058 19.6943C129.748 19.6943 128.686 20.1212 127.87 20.9751C127.073 21.8289 126.674 22.9769 126.674 24.419V24.4474L135.27 22.7967C135.023 21.8669 134.52 21.1174 133.761 20.5482C133.021 19.9789 132.12 19.6943 131.058 19.6943Z" fill="white"/>
<path d="M145.262 19.2389C146.287 17.6451 148.089 16.8481 150.67 16.8481V20.2351C150.366 20.1782 150.091 20.1497 149.845 20.1497C148.46 20.1497 147.378 20.5576 146.6 21.3736C145.822 22.1705 145.433 23.328 145.433 24.8459V32.2175H141.875V17.0189H145.262V19.2389Z" fill="white"/>
<path d="M156.791 19.2389C157.816 17.6451 159.619 16.8481 162.199 16.8481V20.2351C161.895 20.1782 161.62 20.1497 161.373 20.1497C159.988 20.1497 158.907 20.5576 158.129 21.3736C157.351 22.1705 156.962 23.328 156.962 24.8459V32.2175H153.404V17.0189H156.791V19.2389Z" fill="white"/>
<path d="M179.651 17.0189V32.2175H176.263V30.2536C175.675 30.9747 174.945 31.5155 174.072 31.876C173.218 32.2365 172.269 32.4167 171.226 32.4167C169.746 32.4167 168.417 32.0942 167.241 31.449C166.084 30.8039 165.173 29.8931 164.509 28.7167C163.864 27.5403 163.541 26.1741 163.541 24.6182C163.541 23.0623 163.864 21.7056 164.509 20.5482C165.173 19.3718 166.084 18.461 167.241 17.8158C168.417 17.1707 169.746 16.8481 171.226 16.8481C172.212 16.8481 173.114 17.0189 173.929 17.3604C174.764 17.702 175.486 18.2048 176.093 18.8689V17.0189H179.651ZM171.624 29.3714C172.933 29.3714 174.015 28.9349 174.869 28.0621C175.723 27.1893 176.149 26.0413 176.149 24.6182C176.149 23.1951 175.723 22.0471 174.869 21.1743C174.015 20.3015 172.933 19.8651 171.624 19.8651C170.315 19.8651 169.234 20.3015 168.379 21.1743C167.545 22.0471 167.127 23.1951 167.127 24.6182C167.127 26.0413 167.545 27.1893 168.379 28.0621C169.234 28.9349 170.315 29.3714 171.624 29.3714Z" fill="white"/>
<path d="M5.2493 21.3584C5.3018 21.3584 5.35425 21.3584 5.40094 21.3584C5.29594 21.3584 5.19094 21.3525 5.0918 21.3408C5.1443 21.3467 5.1968 21.3525 5.2493 21.3584Z" fill="url(#paint0_linear_287_2573)"/>
<path d="M5.09091 21.3402C5.02673 21.3344 4.96261 21.3286 4.89844 21.3228C4.96261 21.3286 5.02673 21.3344 5.09091 21.3402Z" fill="url(#paint1_linear_287_2573)"/>
<path d="M0.361605 13.8577C3.05032 5.82066 10.6265 0 19.5734 0C28.9284 0 36.8021 6.34561 39.1409 14.9658C38.1902 14.3126 37.1112 13.8226 35.9797 13.5135C34.7141 13.1694 33.4018 13.0411 32.107 13.0586C29.5058 13.0936 26.9979 13.6885 24.5892 14.4117C22.1862 15.1524 19.865 16.0623 17.5962 17.013C15.3274 17.9636 13.1053 18.9609 10.9065 19.9116L10.0841 20.2674C9.81 20.3841 9.5242 20.5124 9.30258 20.5882L8.59687 20.8506L7.89698 21.0548C7.12711 21.2531 6.38644 21.358 5.69236 21.3639C5.59903 21.3639 5.50575 21.3639 5.41242 21.3639C5.30742 21.3639 5.20247 21.358 5.10328 21.3464C5.03916 21.3405 4.97498 21.3347 4.91081 21.3289C2.14047 20.9964 0 18.6577 0 15.8115C0 15.8115 0 14.8433 0.361605 13.8577Z" fill="url(#paint2_linear_287_2573)"/>
<path d="M33.9316 16.3589C33.9608 16.3589 33.99 16.353 34.0191 16.353C33.9841 16.3589 33.9608 16.3589 33.9316 16.3589Z" fill="url(#paint3_linear_287_2573)"/>
<path d="M34.2937 16.3423C34.2003 16.3423 34.107 16.354 34.0195 16.354C34.1653 16.3481 34.3111 16.3481 34.4511 16.3481C34.3986 16.3481 34.3461 16.3423 34.2937 16.3423Z" fill="url(#paint4_linear_287_2573)"/>
<path d="M33.623 16.3895C33.7222 16.3837 33.8271 16.372 33.9263 16.3662C33.8271 16.3662 33.728 16.372 33.623 16.3895Z" fill="url(#paint5_linear_287_2573)"/>
<path d="M39.8397 21.7437C39.8339 21.9478 39.8339 22.1519 39.8223 22.3502C39.8339 22.1986 39.8456 22.0469 39.8456 21.8953C39.8456 21.8428 39.8397 21.7962 39.8397 21.7437Z" fill="url(#paint6_linear_287_2573)"/>
<path d="M34.4517 16.3477C34.3059 16.3477 34.1601 16.3477 34.0201 16.3535C33.991 16.3535 33.9618 16.3535 33.9327 16.3593C33.8335 16.3651 33.7285 16.3768 33.6294 16.3827C33.1919 16.4176 32.7487 16.4701 32.3171 16.5459C30.1008 16.9367 27.9545 17.8116 25.8724 18.8322C23.7902 19.8645 21.7605 21.0602 19.7367 22.3258C19.4568 22.5008 19.1768 22.6757 18.8969 22.8565C17.1589 23.953 15.4208 25.0962 13.6478 26.2276L12.872 26.7234C12.6096 26.8867 12.3705 27.05 12.0439 27.2308L11.1165 27.7557L10.1367 28.2281C8.80109 28.8231 7.33132 29.3013 5.73912 29.5112C4.1702 29.7212 2.47881 29.6571 0.857422 29.2663C3.9194 36.5801 11.1399 41.7242 19.5676 41.7242C27.2546 41.7242 33.9385 37.4491 37.3796 31.1443C38.8143 28.5139 39.6833 25.5336 39.8233 22.3608C39.835 22.1567 39.835 21.9584 39.8408 21.7542C39.7592 18.8031 37.3912 16.4351 34.4517 16.3477Z" fill="url(#paint7_linear_287_2573)"/>
<path d="M34.4511 16.3477C34.3053 16.3477 34.1595 16.3477 34.0195 16.3535C33.9904 16.3535 33.9612 16.3535 33.9321 16.3593C33.8329 16.3651 33.7279 16.3768 33.6288 16.3827C33.1913 16.4176 32.7481 16.4701 32.3165 16.5459C30.1002 16.9367 27.9539 17.8116 25.8718 18.8322C23.7896 19.8645 21.7599 21.0602 19.7361 22.3258C19.4562 22.5008 19.1762 22.6757 18.8963 22.8565C18.0389 23.399 17.1816 23.9472 16.3242 24.5071C35.9384 15.8869 38.3705 29.0039 38.3763 29.033C39.2161 26.9567 39.7236 24.7054 39.8286 22.355C39.8402 22.1508 39.8402 21.9525 39.846 21.7484C39.7586 18.8031 37.3906 16.4351 34.4511 16.3477Z" fill="url(#paint8_linear_287_2573)"/>
<path d="M4.99833 6.21826C2.93367 8.37039 1.32977 10.9658 0.361605 13.8587C0 14.8443 0 15.8125 0 15.8125C0 18.6587 2.14047 21.0032 4.89919 21.3241C4.96331 21.3299 5.02748 21.3357 5.09166 21.3415C5.19661 21.3474 5.30161 21.3532 5.40075 21.359C5.49408 21.359 5.58741 21.359 5.68069 21.359C6.37477 21.3474 7.1213 21.2482 7.88531 21.0499L8.5852 20.8458L9.29091 20.5833C9.51253 20.5075 9.80419 20.3792 10.0725 20.2626L10.8948 19.9068C13.0936 18.9561 15.3158 17.9588 17.5845 17.0081C18.9143 16.4482 20.2616 15.9116 21.6322 15.41V15.4042C-0.47825 21.639 4.96917 6.30578 4.99833 6.21826Z" fill="url(#paint9_linear_287_2573)"/>
</g>
<defs>
<linearGradient id="paint0_linear_287_2573" x1="33.5068" y1="5.89102" x2="3.2901" y2="22.4269" gradientUnits="userSpaceOnUse">
<stop stop-color="#FF9700"/>
<stop offset="0.1252" stop-color="#FF8E00"/>
<stop offset="0.3317" stop-color="#FF7500"/>
<stop offset="0.5939" stop-color="#FF4C00"/>
<stop offset="0.8988" stop-color="#FF1400"/>
<stop offset="1" stop-color="#FF0000"/>
</linearGradient>
<linearGradient id="paint1_linear_287_2573" x1="12.3142" y1="17.3288" x2="3.03144" y2="22.4089" gradientUnits="userSpaceOnUse">
<stop stop-color="#FF9700"/>
<stop offset="0.1252" stop-color="#FF8E00"/>
<stop offset="0.3317" stop-color="#FF7500"/>
<stop offset="0.5939" stop-color="#FF4C00"/>
<stop offset="0.8988" stop-color="#FF1400"/>
<stop offset="1" stop-color="#FF0000"/>
</linearGradient>
<linearGradient id="paint2_linear_287_2573" x1="26.7909" y1="0.22198" x2="5.18981" y2="43.035" gradientUnits="userSpaceOnUse">
<stop stop-color="#FFB74F"/>
<stop offset="0.218012" stop-color="#FF8E00"/>
<stop offset="0.3317" stop-color="#FF7500"/>
<stop offset="0.5939" stop-color="#FF4C00"/>
<stop offset="0.8988" stop-color="#FF1400"/>
<stop offset="1" stop-color="#FF0000"/>
</linearGradient>
<linearGradient id="paint3_linear_287_2573" x1="36.5566" y1="14.944" x2="3.52201" y2="33.022" gradientUnits="userSpaceOnUse">
<stop stop-color="#FF9700"/>
<stop offset="0.1252" stop-color="#FF8E00"/>
<stop offset="0.3317" stop-color="#FF7500"/>
<stop offset="0.5939" stop-color="#FF4C00"/>
<stop offset="0.8988" stop-color="#FF1400"/>
<stop offset="1" stop-color="#FF0000"/>
</linearGradient>
<linearGradient id="paint4_linear_287_2573" x1="36.5094" y1="15.1077" x2="27.2251" y2="20.1868" gradientUnits="userSpaceOnUse">
<stop stop-color="#FF9700"/>
<stop offset="0.1252" stop-color="#FF8E00"/>
<stop offset="0.3317" stop-color="#FF7500"/>
<stop offset="0.5939" stop-color="#FF4C00"/>
<stop offset="0.8988" stop-color="#FF1400"/>
<stop offset="1" stop-color="#FF0000"/>
</linearGradient>
<linearGradient id="paint5_linear_287_2573" x1="36.413" y1="14.9324" x2="27.1303" y2="20.0122" gradientUnits="userSpaceOnUse">
<stop stop-color="#FF9700"/>
<stop offset="0.1252" stop-color="#FF8E00"/>
<stop offset="0.3317" stop-color="#FF7500"/>
<stop offset="0.5939" stop-color="#FF4C00"/>
<stop offset="0.8988" stop-color="#FF1400"/>
<stop offset="1" stop-color="#FF0000"/>
</linearGradient>
<linearGradient id="paint6_linear_287_2573" x1="40.1968" y1="21.8486" x2="30.914" y2="26.9272" gradientUnits="userSpaceOnUse">
<stop stop-color="#FF9700"/>
<stop offset="0.1252" stop-color="#FF8E00"/>
<stop offset="0.3317" stop-color="#FF7500"/>
<stop offset="0.5939" stop-color="#FF4C00"/>
<stop offset="0.8988" stop-color="#FF1400"/>
<stop offset="1" stop-color="#FF0000"/>
</linearGradient>
<linearGradient id="paint7_linear_287_2573" x1="35.8685" y1="6.19987" x2="14.8009" y2="49.6087" gradientUnits="userSpaceOnUse">
<stop stop-color="#FF9700"/>
<stop offset="0.1252" stop-color="#FF8E00"/>
<stop offset="0.3317" stop-color="#FF7500"/>
<stop offset="0.5939" stop-color="#FF4C00"/>
<stop offset="0.8988" stop-color="#FF1400"/>
<stop offset="1" stop-color="#FF0000"/>
</linearGradient>
<linearGradient id="paint8_linear_287_2573" x1="29.5804" y1="20.8593" x2="48.3847" y2="36.4018" gradientUnits="userSpaceOnUse">
<stop stop-color="#FFA522"/>
<stop offset="0.298461" stop-color="#FF8E00"/>
<stop offset="0.671554" stop-color="#FF7500"/>
<stop offset="1" stop-color="#FF4C00"/>
</linearGradient>
<linearGradient id="paint9_linear_287_2573" x1="-29.031" y1="-2.84504" x2="22.2654" y2="22.3438" gradientUnits="userSpaceOnUse">
<stop stop-color="#FF9700"/>
<stop offset="0.1252" stop-color="#FF8E00"/>
<stop offset="0.437079" stop-color="#FF7500"/>
<stop offset="0.8988" stop-color="#FF1400"/>
</linearGradient>
<clipPath id="clip0_287_2573">
<rect width="180" height="41.7188" fill="white"/>
</clipPath>
</defs>
</svg>
