<svg width="360" height="378" viewBox="0 0 360 378" fill="none" xmlns="http://www.w3.org/2000/svg">
<path d="M47.42 193.371C47.8943 193.371 48.3682 193.371 48.79 193.371C47.8414 193.371 46.8928 193.318 45.9971 193.212C46.4714 193.265 46.9457 193.318 47.42 193.371Z" fill="white"/>
<path d="M45.9908 193.206C45.4111 193.153 44.8317 193.1 44.252 193.047C44.8317 193.1 45.4111 193.153 45.9908 193.206Z" fill="white"/>
<path d="M3.26698 125.462C27.5585 52.6981 96.0068 0 176.838 0C261.358 0 332.494 57.4508 353.624 135.495C345.035 129.581 335.287 125.145 325.064 122.347C313.63 119.231 301.773 118.07 290.076 118.228C266.575 118.545 243.917 123.931 222.154 130.478C200.445 137.185 179.473 145.422 158.975 154.029C138.477 162.636 118.401 171.665 98.5363 180.272L91.1065 183.493C88.6299 184.55 86.0478 185.711 84.0455 186.397L77.6697 188.774L71.3464 190.622C64.3909 192.417 57.6992 193.368 51.4284 193.421C50.5853 193.421 49.7425 193.421 48.8993 193.421C47.9507 193.421 47.0025 193.368 46.1063 193.262C45.527 193.209 44.9472 193.157 44.3674 193.104C19.3384 190.094 0 168.919 0 143.151C0 143.151 0 134.386 3.26698 125.462Z" fill="white"/>
<path d="M306.557 148.109C306.82 148.109 307.083 148.056 307.347 148.056C307.031 148.109 306.82 148.109 306.557 148.109Z" fill="white"/>
<path d="M309.836 147.956C308.993 147.956 308.15 148.062 307.359 148.062C308.676 148.009 309.994 148.009 311.259 148.009C310.784 148.009 310.31 147.956 309.836 147.956Z" fill="white"/>
<path d="M303.778 148.383C304.674 148.33 305.622 148.224 306.518 148.172C305.622 148.172 304.727 148.224 303.778 148.383Z" fill="white"/>
<path d="M359.933 196.86C359.881 198.709 359.881 200.557 359.775 202.352C359.881 200.979 359.986 199.606 359.986 198.233C359.986 197.758 359.933 197.336 359.933 196.86Z" fill="white"/>
<path d="M311.255 148.006C309.937 148.006 308.62 148.006 307.355 148.058C307.092 148.058 306.829 148.058 306.565 148.112C305.669 148.164 304.721 148.27 303.825 148.323C299.873 148.639 295.868 149.115 291.969 149.801C271.946 153.339 252.555 161.26 233.743 170.5C214.932 179.846 196.594 190.671 178.31 202.13C175.781 203.714 173.251 205.298 170.722 206.935C155.02 216.862 139.317 227.212 123.298 237.456L116.29 241.944C113.919 243.422 111.759 244.901 108.808 246.538L100.43 251.29L91.5771 255.567C79.5104 260.954 66.2315 265.283 51.8466 267.184C37.6719 269.085 22.3909 268.504 7.74219 264.967C35.4061 331.183 100.64 377.755 176.782 377.755C246.231 377.755 306.618 339.05 337.707 281.969C350.669 258.155 358.52 231.172 359.785 202.446C359.89 200.599 359.89 198.803 359.943 196.955C359.206 170.236 337.812 148.798 311.255 148.006Z" fill="white"/>
<path d="M311.258 148.006C309.941 148.006 308.624 148.006 307.359 148.058C307.096 148.058 306.832 148.058 306.569 148.112C305.673 148.164 304.725 148.27 303.829 148.323C299.877 148.639 295.872 149.115 291.973 149.801C271.95 153.339 252.558 161.26 233.747 170.5C214.936 179.846 196.598 190.671 178.314 202.13C175.784 203.714 173.255 205.298 170.726 206.935C162.98 211.846 155.234 216.809 147.488 221.878C324.695 143.835 346.668 262.59 346.721 262.854C354.309 244.056 358.893 223.674 359.842 202.394C359.947 200.546 359.947 198.75 360 196.902C359.209 170.236 337.816 148.798 311.258 148.006Z" fill="white"/>
<path d="M45.1581 56.2979C26.5046 75.7824 12.014 99.2803 3.26698 125.471C0 134.395 0 143.16 0 143.16C0 168.928 19.3384 190.156 44.2624 193.06C44.8418 193.113 45.4215 193.166 46.0013 193.218C46.9495 193.271 47.8982 193.324 48.7939 193.377C49.637 193.377 50.4802 193.377 51.323 193.377C57.5937 193.271 64.3384 192.373 71.241 190.578L77.5643 188.73L83.94 186.354C85.9423 185.667 88.5773 184.506 91.001 183.45L98.4309 180.229C118.296 171.622 138.372 162.592 158.87 153.985C170.884 148.916 183.056 144.058 195.439 139.517V139.464C-4.32082 195.911 44.8947 57.0902 45.1581 56.2979Z" fill="white"/>
</svg>
