<svg width="20" height="19" viewBox="0 0 20 19" fill="none" xmlns="http://www.w3.org/2000/svg">
<g clip-path="url(#clip0_545_932)">
<path d="M12.0003 2.66667C12.0003 1.95942 12.2813 1.28115 12.7814 0.781048C13.2815 0.280951 13.9598 0 14.667 0H17.3337C18.0409 0 18.7192 0.280951 19.2193 0.781048C19.7194 1.28115 20.0003 1.95942 20.0003 2.66667V5.33333C20.0003 6.04058 19.7194 6.71885 19.2193 7.21895C18.7192 7.71905 18.0409 8 17.3337 8H14.667C13.9598 8 13.2815 7.71905 12.7814 7.21895C12.2813 6.71885 12.0003 6.04058 12.0003 5.33333V2.66667ZM3.88435 0.898667C4.01847 0.628978 4.22517 0.40206 4.48122 0.243436C4.73726 0.0848119 5.03248 0.000773748 5.33368 0.000773748C5.63488 0.000773748 5.9301 0.0848119 6.18614 0.243436C6.44219 0.40206 6.64889 0.628978 6.78301 0.898667L9.15635 5.61467C9.70301 6.70667 8.91768 8 7.70435 8H2.96035C1.74701 8 0.960347 6.70667 1.51101 5.61333L3.88301 0.898667H3.88435ZM5.59101 1.49867C5.56792 1.44977 5.5314 1.40845 5.48573 1.37951C5.44005 1.35056 5.38709 1.3352 5.33301 1.3352C5.27894 1.3352 5.22598 1.35056 5.1803 1.37951C5.13462 1.40845 5.09811 1.44977 5.07501 1.49867L2.70301 6.21333C2.67835 6.25931 2.66577 6.31079 2.66645 6.36296C2.66714 6.41512 2.68106 6.46626 2.70691 6.51157C2.73277 6.55688 2.76971 6.59489 2.81427 6.62202C2.85883 6.64914 2.90956 6.66451 2.96168 6.66667H7.70701C7.90701 6.66667 8.07901 6.43867 7.96568 6.21333L5.59235 1.49733L5.59101 1.49867ZM9.33368 14.6667C9.33368 15.7275 8.91225 16.7449 8.16211 17.4951C7.41196 18.2452 6.39455 18.6667 5.33368 18.6667C4.27281 18.6667 3.2554 18.2452 2.50525 17.4951C1.75511 16.7449 1.33368 15.7275 1.33368 14.6667C1.33368 13.6058 1.75511 12.5884 2.50525 11.8382C3.2554 11.0881 4.27281 10.6667 5.33368 10.6667C6.39455 10.6667 7.41196 11.0881 8.16211 11.8382C8.91225 12.5884 9.33368 13.6058 9.33368 14.6667ZM8.00035 14.6667C8.00041 14.1964 7.87614 13.7346 7.64013 13.3279C7.40412 12.9212 7.06476 12.5841 6.65647 12.3508C6.24818 12.1176 5.78546 11.9964 5.31525 11.9997C4.84504 12.0029 4.38405 12.1305 3.97901 12.3693L7.63235 16.0213C7.8744 15.611 8.00152 15.1431 8.00035 14.6667ZM5.33368 17.3333C5.82701 17.3333 6.29101 17.1987 6.68835 16.964L3.03501 13.312C2.79608 13.7171 2.66855 14.1782 2.66536 14.6486C2.66217 15.1189 2.78343 15.5817 3.01684 15.99C3.25025 16.3984 3.58751 16.7377 3.9944 16.9736C4.40129 17.2095 4.86334 17.3336 5.33368 17.3333ZM15.5203 10.7827C15.6688 10.7062 15.8334 10.6663 16.0003 10.6663C16.1673 10.6663 16.3319 10.7062 16.4803 10.7827L19.4537 12.3187C19.6173 12.4019 19.7548 12.5285 19.8512 12.6846C19.9477 12.8408 19.9992 13.0205 20.0003 13.204V16.1293C19.9992 16.3129 19.9477 16.4925 19.8512 16.6487C19.7548 16.8049 19.6173 16.9315 19.4537 17.0147L16.4803 18.5507C16.3319 18.6271 16.1673 18.6671 16.0003 18.6671C15.8334 18.6671 15.6688 18.6271 15.5203 18.5507L12.547 17.0147C12.3834 16.9315 12.2459 16.8049 12.1495 16.6487C12.053 16.4925 12.0015 16.3129 12.0003 16.1293V13.204C12.0015 13.0205 12.053 12.8408 12.1495 12.6846C12.2459 12.5285 12.3834 12.4019 12.547 12.3187L15.5203 10.7827ZM13.3337 13.4133V15.92L16.0003 17.2973L18.667 15.92V13.4133L16.0003 12.036L13.3337 13.4133Z" fill="black"/>
</g>
<defs>
<clipPath id="clip0_545_932">
<rect width="20" height="18.6671" fill="white"/>
</clipPath>
</defs>
</svg>
