<svg width="20" height="20" viewBox="0 0 20 20" fill="none" xmlns="http://www.w3.org/2000/svg">
<path d="M9.91797 4.98407C9.42352 4.98407 8.94017 5.13069 8.52904 5.4054C8.11792 5.6801 7.79749 6.07054 7.60827 6.52736C7.41905 6.98417 7.36954 7.48684 7.46601 7.97179C7.56247 8.45674 7.80057 8.9022 8.1502 9.25183C8.49983 9.60146 8.94529 9.83956 9.43024 9.93603C9.9152 10.0325 10.4179 9.98298 10.8747 9.79376C11.3315 9.60454 11.7219 9.28411 11.9966 8.87299C12.2713 8.46187 12.418 7.97852 12.418 7.48407C12.4172 6.82126 12.1536 6.18581 11.6849 5.71714C11.2162 5.24846 10.5808 4.98482 9.91797 4.98407ZM9.91797 8.73406C9.67074 8.73406 9.42907 8.66075 9.22351 8.5234C9.01795 8.38605 8.85773 8.19083 8.76312 7.96242C8.66851 7.73401 8.64376 7.48268 8.69199 7.2402C8.74022 6.99773 8.85927 6.775 9.03409 6.60018C9.2089 6.42537 9.43163 6.30632 9.67411 6.25809C9.91658 6.20985 10.1679 6.23461 10.3963 6.32922C10.6247 6.42383 10.82 6.58404 10.9573 6.7896C11.0947 6.99517 11.168 7.23684 11.168 7.48407C11.1676 7.81547 11.0358 8.13319 10.8014 8.36753C10.5671 8.60186 10.2494 8.73368 9.91797 8.73406Z" fill="black"/>
<path d="M14.7222 2.67637C13.5344 1.48888 11.9489 0.78347 10.2716 0.696272C8.59426 0.609074 6.94411 1.14627 5.63959 2.20419C4.33508 3.2621 3.46867 4.76574 3.2076 6.42489C2.94652 8.08404 3.30929 9.78109 4.22587 11.1885L8.9488 18.439C9.0539 18.6003 9.19761 18.7329 9.36689 18.8247C9.53617 18.9164 9.72568 18.9645 9.91823 18.9645C10.1108 18.9645 10.3003 18.9164 10.4696 18.8247C10.6389 18.7329 10.7826 18.6003 10.8877 18.439L15.6107 11.1885C16.4612 9.88293 16.8371 8.32468 16.6753 6.77493C16.5135 5.22519 15.824 3.77816 14.7222 2.67637V2.67637ZM14.5634 10.5062L9.91825 17.6371L5.27306 10.5062C3.85118 8.32343 4.15614 5.40234 5.99817 3.56023C6.51296 3.04543 7.12411 2.63707 7.79671 2.35846C8.46932 2.07985 9.19022 1.93645 9.91825 1.93645C10.6463 1.93645 11.3672 2.07985 12.0398 2.35846C12.7124 2.63707 13.3235 3.04543 13.8383 3.56023C15.6804 5.40234 15.9853 8.32343 14.5634 10.5062Z" fill="black"/>
</svg>
