<svg width="14" height="10" viewBox="0 0 14 10" fill="none" xmlns="http://www.w3.org/2000/svg">
<path fill-rule="evenodd" clip-rule="evenodd" d="M14 4.99986C14 5.13247 13.9473 5.25964 13.8536 5.35341C13.7598 5.44718 13.6326 5.49986 13.5 5.49986L1.707 5.49986L4.854 8.64586C4.94789 8.73974 5.00063 8.86708 5.00063 8.99986C5.00063 9.13263 4.94789 9.25997 4.854 9.35386C4.76011 9.44774 4.63278 9.50049 4.5 9.50049C4.36722 9.50049 4.23989 9.44774 4.146 9.35386L0.146 5.35386C0.0994368 5.30741 0.0624943 5.25224 0.0372877 5.19149C0.0120811 5.13074 -0.000893593 5.06562 -0.000893593 4.99986C-0.000893593 4.93409 0.0120811 4.86897 0.0372877 4.80822C0.0624943 4.74748 0.0994368 4.6923 0.146 4.64586L4.146 0.645857C4.23989 0.55197 4.36722 0.499226 4.5 0.499226C4.63278 0.499226 4.76011 0.55197 4.854 0.645857C4.94789 0.739743 5.00063 0.867082 5.00063 0.999857C5.00063 1.13263 4.94789 1.25997 4.854 1.35386L1.707 4.49986L13.5 4.49986C13.6326 4.49986 13.7598 4.55254 13.8536 4.6463C13.9473 4.74007 14 4.86725 14 4.99986Z" fill="white"/>
</svg>
