<svg width="24" height="10" viewBox="0 0 24 10" fill="none" xmlns="http://www.w3.org/2000/svg">
<path d="M5.7 4.644C6.092 4.836 6.4 5.104 6.624 5.448C6.848 5.792 6.96 6.184 6.96 6.624C6.96 7.296 6.724 7.86 6.252 8.316C5.78 8.772 5.204 9 4.524 9H0.9V0.599999H4.26C4.924 0.599999 5.48 0.819999 5.928 1.26C6.384 1.7 6.612 2.244 6.612 2.892C6.612 3.644 6.308 4.228 5.7 4.644ZM4.26 1.644H2.016V4.212H4.26C4.612 4.212 4.908 4.088 5.148 3.84C5.388 3.592 5.508 3.288 5.508 2.928C5.508 2.576 5.384 2.276 5.136 2.028C4.896 1.772 4.604 1.644 4.26 1.644ZM2.016 7.956H4.524C4.9 7.956 5.216 7.824 5.472 7.56C5.728 7.296 5.856 6.972 5.856 6.588C5.856 6.212 5.724 5.892 5.46 5.628C5.212 5.364 4.9 5.232 4.524 5.232H2.016V7.956ZM12.1828 4.836H16.3828V5.34C16.3828 6.436 16.0068 7.348 15.2548 8.076C14.5028 8.796 13.5068 9.156 12.2668 9.156C10.9868 9.156 9.92681 8.736 9.08681 7.896C8.25481 7.04 7.83881 6.008 7.83881 4.8C7.83881 3.592 8.25481 2.564 9.08681 1.716C9.92681 0.867999 10.9788 0.443999 12.2428 0.443999C13.0108 0.443999 13.7228 0.631999 14.3788 1.008C15.0428 1.384 15.5428 1.872 15.8788 2.472L14.9188 3.036C14.6788 2.58 14.3148 2.216 13.8268 1.944C13.3388 1.664 12.8068 1.524 12.2308 1.524C11.2628 1.524 10.4748 1.84 9.86681 2.472C9.25081 3.104 8.94281 3.88 8.94281 4.8C8.94281 5.72 9.25081 6.496 9.86681 7.128C10.4908 7.752 11.2948 8.064 12.2788 8.064C13.1028 8.064 13.7748 7.864 14.2948 7.464C14.8228 7.056 15.1468 6.516 15.2668 5.844H12.1828V4.836ZM22.5398 4.644C22.9318 4.836 23.2398 5.104 23.4638 5.448C23.6878 5.792 23.7998 6.184 23.7998 6.624C23.7998 7.296 23.5638 7.86 23.0918 8.316C22.6198 8.772 22.0438 9 21.3638 9H17.7398V0.599999H21.0998C21.7638 0.599999 22.3198 0.819999 22.7678 1.26C23.2238 1.7 23.4518 2.244 23.4518 2.892C23.4518 3.644 23.1478 4.228 22.5398 4.644ZM21.0998 1.644H18.8558V4.212H21.0998C21.4518 4.212 21.7478 4.088 21.9878 3.84C22.2278 3.592 22.3478 3.288 22.3478 2.928C22.3478 2.576 22.2238 2.276 21.9758 2.028C21.7358 1.772 21.4438 1.644 21.0998 1.644ZM18.8558 7.956H21.3638C21.7398 7.956 22.0558 7.824 22.3118 7.56C22.5678 7.296 22.6958 6.972 22.6958 6.588C22.6958 6.212 22.5638 5.892 22.2998 5.628C22.0518 5.364 21.7398 5.232 21.3638 5.232H18.8558V7.956Z" fill="#11100E"/>
</svg>
