<svg width="21" height="20" viewBox="0 0 21 20" fill="none" xmlns="http://www.w3.org/2000/svg">
<g clip-path="url(#clip0_124_3501)">
<path d="M10.1233 0C4.59667 0 0.125002 4.4725 0.125002 10C0.124126 11.3135 0.382185 12.6142 0.884422 13.8279C1.38666 15.0415 2.12322 16.1443 3.05198 17.073C3.98074 18.0018 5.08348 18.7383 6.29713 19.2406C7.51078 19.7428 8.81154 20.0009 10.125 20C15.6525 20 20.125 15.5275 20.125 10C20.1242 4.4725 15.615 0 10.1233 0ZM5.43334 12.1458C5.76 12.5817 6.19667 12.7642 6.81417 12.7642C7.10584 12.7642 7.39667 12.7275 7.65084 12.6183C7.90584 12.51 8.19667 12.3633 8.55917 12.1458L9.57834 13.6C8.7425 14.2917 7.79667 14.6183 6.70584 14.6183C5.8325 14.6183 5.10584 14.4367 4.45167 14.0733C3.81661 13.6987 3.30947 13.141 2.99667 12.4733C2.67 11.7817 2.4875 10.9817 2.4875 10.0358C2.4875 9.1275 2.67 8.29083 2.99584 7.6C3.30695 6.91176 3.8135 6.33016 4.4525 5.9275C5.07 5.5275 5.83334 5.34583 6.67 5.34583C7.2525 5.34583 7.7975 5.41833 8.23417 5.6C8.72406 5.78963 9.17869 6.06004 9.57917 6.4L8.56084 7.78167C8.30231 7.59079 8.02167 7.43186 7.725 7.30833C7.47084 7.2 7.14334 7.16333 6.85167 7.16333C5.61584 7.16333 4.9975 8.10833 4.9975 10.035C4.96167 11.0183 5.14334 11.7083 5.43417 12.145H5.43334V12.1458ZM15.4333 14.4C15.07 15.5275 14.5242 16.3642 13.76 16.9817C12.9967 17.6008 11.9783 17.9275 10.7058 18.0367L10.4517 16.3283C11.2875 16.2183 11.9058 16.0367 12.3058 15.745C12.4508 15.6367 12.7425 15.3092 12.7425 15.3092L9.72417 5.63667H12.2325L13.9783 12.8725L15.8333 5.63667H18.2692L15.4333 14.4Z" fill="black"/>
</g>
<defs>
<clipPath id="clip0_124_3501">
<rect width="20" height="20" fill="white" transform="translate(0.125)"/>
</clipPath>
</defs>
</svg>
