<svg width="15" height="20" viewBox="0 0 15 20" fill="none" xmlns="http://www.w3.org/2000/svg">
<g clip-path="url(#clip0_124_3424)">
<path d="M14.7946 3.92065L13.5071 18.345L7.71925 19.9496L1.94739 18.3472L0.661133 3.92065H14.7946Z" fill="#E44D26"/>
<path d="M7.72852 18.723L12.4054 17.4264L13.5056 5.1001H7.72852V18.723Z" fill="#F16529"/>
<path d="M5.2247 8.63899H7.72775V6.86963H3.29102L3.33334 7.34431L3.76825 12.2202H7.72775V10.4509H5.38642L5.2247 8.63899Z" fill="#EBEBEB"/>
<path d="M5.62383 13.1047H3.84766L4.09552 15.8829L7.71996 16.889L7.7281 16.8868V15.0459L7.72034 15.048L5.74982 14.5159L5.62383 13.1047Z" fill="#EBEBEB"/>
<path d="M1.97656 0H2.87573V0.888365H3.69828V0H4.5975V2.69019H3.69834V1.78936H2.87579V2.69019H1.97662V0H1.97656Z" fill="black"/>
<path d="M5.77975 0.892132H4.98828V0H7.47105V0.892132H6.67909V2.69019H5.77992V0.892132H5.77986H5.77975Z" fill="black"/>
<path d="M7.86523 0H8.8028L9.37953 0.945262L9.95571 0H10.8937V2.69019H9.99814V1.35679L9.37953 2.31329H9.36402L8.74501 1.35679V2.69019H7.86523V0Z" fill="black"/>
<path d="M11.3409 0H12.2403V1.801H13.5048V2.69019H11.3408V0H11.3409Z" fill="black"/>
<path d="M7.72174 12.22H9.90052L9.69509 14.5148L7.72168 15.0474V16.8882L11.349 15.8829L11.3756 15.584L11.7914 10.9258L11.8346 10.4507H7.72174V12.22Z" fill="white"/>
<path d="M7.72168 8.63467V8.639H11.9955L12.031 8.24132L12.1117 7.34431L12.1539 6.86963H7.72168V8.63473V8.63467Z" fill="white"/>
</g>
<defs>
<clipPath id="clip0_124_3424">
<rect width="14.1828" height="20" fill="white" transform="translate(0.636719)"/>
</clipPath>
</defs>
</svg>
