<svg width="15" height="20" viewBox="0 0 15 20" fill="none" xmlns="http://www.w3.org/2000/svg">
<g clip-path="url(#clip0_1152_132)">
<path d="M4.77219 15.4609C4.77219 15.4609 4.0093 15.9046 5.31514 16.0547C6.89716 16.2352 7.70566 16.2093 9.44907 15.8793C9.44907 15.8793 9.90745 16.1667 10.5475 16.4157C6.63936 18.0907 1.70248 16.3186 4.77219 15.4609Z" fill="#5382A1"/>
<path d="M4.29422 13.2751C4.29422 13.2751 3.43855 13.9086 4.74537 14.0437C6.43531 14.218 7.76988 14.2323 10.0792 13.7876C10.0792 13.7876 10.3987 14.1114 10.9009 14.2885C6.17566 15.6703 0.912602 14.3975 4.29422 13.2751Z" fill="#5382A1"/>
<path d="M8.32076 9.56739C9.28377 10.6761 8.06776 11.6737 8.06776 11.6737C8.06776 11.6737 10.5129 10.4115 9.38995 8.8308C8.34117 7.35681 7.53683 6.62432 11.891 4.09912C11.891 4.09912 5.05643 5.80606 8.32076 9.56733" fill="#E76F00"/>
<path d="M13.4896 17.0775C13.4896 17.0775 14.0542 17.5427 12.8679 17.9026C10.612 18.586 3.47872 18.7923 1.49711 17.9298C0.784794 17.62 2.12063 17.1899 2.5408 17.0996C2.97901 17.0046 3.22947 17.0223 3.22947 17.0223C2.43728 16.4643 -1.89093 18.1181 1.03098 18.5917C8.99936 19.884 15.5565 18.0099 13.4896 17.0775Z" fill="#5382A1"/>
<path d="M5.13839 11.0103C5.13839 11.0103 1.51 11.8722 3.85353 12.1851C4.84301 12.3176 6.81555 12.2876 8.65295 12.1336C10.1546 12.007 11.6624 11.7377 11.6624 11.7377C11.6624 11.7377 11.1329 11.9644 10.7498 12.226C7.06521 13.1951 -0.0528287 12.7443 1.99636 11.753C3.72937 10.9153 5.13844 11.0103 5.13844 11.0103" fill="#5382A1"/>
<path d="M11.6475 14.6488C15.3932 12.7024 13.6613 10.832 12.4526 11.084C12.1563 11.1456 12.0242 11.1991 12.0242 11.1991C12.0242 11.1991 12.1342 11.0268 12.3442 10.9522C14.7356 10.1115 16.5747 13.4318 11.5723 14.7469C11.5723 14.7469 11.6302 14.6951 11.6475 14.6488Z" fill="#5382A1"/>
<path d="M9.38932 0.0215422C9.38932 0.0215422 11.4637 2.09669 7.42187 5.2875C4.18077 7.84715 6.68279 9.30657 7.42054 10.974C5.52863 9.26709 4.14019 7.76443 5.07169 6.36594C6.4388 4.31293 10.2263 3.31761 9.38932 0.0214844" fill="#E76F00"/>
<path d="M5.50706 19.9229C9.10238 20.1531 14.6234 19.7952 14.7541 18.094C14.7541 18.094 14.5028 18.739 11.7828 19.2511C8.71411 19.8286 4.92937 19.7612 2.68457 19.391C2.68463 19.391 3.14411 19.7714 5.50711 19.9229" fill="#5382A1"/>
</g>
<defs>
<clipPath id="clip0_1152_132">
<rect width="14.7977" height="20" fill="white"/>
</clipPath>
</defs>
</svg>
