<svg width="19" height="20" viewBox="0 0 19 20" fill="none" xmlns="http://www.w3.org/2000/svg">
<g clip-path="url(#clip0_124_3498)">
<path d="M16.9632 9.82044C16.9632 8.79514 16.1319 7.9639 15.1066 7.9639C15.0406 7.9639 14.9756 7.96744 14.9114 7.97422L17.4614 0.453369H6.62492L9.17135 7.96765C9.13377 7.96528 9.09614 7.96406 9.05849 7.96398C8.03319 7.96398 7.20195 8.79507 7.20195 9.82051C7.20195 10.6493 7.74513 11.351 8.49474 11.5897C8.09884 12.2755 7.60061 12.8932 7.03495 13.4269C6.26577 14.1525 5.38548 14.7028 4.4334 15.0418C3.29983 14.4595 2.76457 13.1644 3.24753 12.0289C3.30209 11.9007 3.35778 11.7707 3.411 11.6413C4.2322 11.4496 4.84421 10.7134 4.84421 9.8338C4.84421 8.80843 4.01298 7.97726 2.98761 7.97726C1.96223 7.97726 1.13107 8.80843 1.13107 9.8338C1.13107 10.4626 1.44386 11.018 1.92209 11.3538C1.46259 12.4 0.78711 13.495 0.576651 14.7641C0.324425 16.2849 0.575803 17.8993 1.89121 18.8111C4.95467 20.9343 8.28004 17.4948 11.7862 16.6301C13.0569 16.3168 14.4517 16.3673 15.5712 15.719C16.4119 15.232 16.9662 14.425 17.1234 13.5191C17.2789 12.6241 17.0523 11.733 16.5313 11.0105C16.8109 10.677 16.9638 10.2556 16.9632 9.82044Z" fill="#99425B"/>
<path d="M16.6763 13.4416C16.5397 14.2281 16.0539 14.9151 15.3435 15.3266C14.6813 15.7102 13.8877 15.8247 13.0474 15.9458C12.5973 16.0107 12.1319 16.0779 11.6772 16.19C10.4749 16.4864 9.3104 17.0649 8.18432 17.6242C5.93061 18.7437 3.98432 19.7103 2.14912 18.4384C0.804812 17.5067 0.866861 15.7829 1.02347 14.8383C1.16863 13.9631 1.56107 13.1571 1.9405 12.3777C2.00515 12.2452 2.06927 12.1125 2.13287 11.9795C2.32414 12.056 2.52484 12.1063 2.72955 12.1292C2.34326 13.404 2.95075 14.7902 4.22573 15.4452L4.40029 15.5348L4.58503 15.469C5.59301 15.11 6.52185 14.5341 7.34566 13.7567C7.87817 13.2543 8.33605 12.6985 8.71238 12.1046C8.82679 12.1219 8.94233 12.1305 9.05803 12.1305C10.2283 12.1305 11.1973 11.2557 11.3473 10.1258C11.8263 10.1083 12.3351 10.1081 12.8168 10.1257C12.9667 11.2557 13.9358 12.1306 15.1061 12.1306C15.5954 12.1306 16.0493 11.9772 16.4232 11.7167C16.6828 12.2481 16.7797 12.846 16.6763 13.4416ZM2.98722 8.43074C3.76093 8.43074 4.39033 9.06021 4.39033 9.83392C4.39054 10.1017 4.31362 10.3639 4.16877 10.5892C3.93556 10.9529 3.53909 11.2023 3.08361 11.2334C3.05174 11.2355 3.01958 11.237 2.98722 11.237C2.81478 11.237 2.64962 11.2056 2.4969 11.1485C2.18932 11.0328 1.93176 10.8134 1.76863 10.5282C1.6475 10.3169 1.58385 10.0775 1.58403 9.83392C1.58403 9.06021 2.21351 8.43074 2.98722 8.43074ZM7.65499 9.82056C7.65499 9.1176 8.17464 8.53392 8.84983 8.433C8.91782 8.42276 8.98736 8.41746 9.0581 8.41746C9.50793 8.41746 9.90842 8.63053 10.1652 8.96071C10.2296 9.04303 10.2845 9.13228 10.3291 9.22678C10.4163 9.41257 10.4614 9.61532 10.4612 9.82056C10.4612 9.93272 10.4476 10.0418 10.4227 10.1464C10.2859 10.7188 9.79782 11.1564 9.19966 11.2166C9.15316 11.2213 9.10595 11.2237 9.0581 11.2237C8.78821 11.2239 8.52406 11.1458 8.29768 10.9989C7.91139 10.7486 7.65499 10.3141 7.65499 9.82056ZM13.5112 8.15201C13.2058 8.44346 12.9861 8.81292 12.8758 9.22035C12.3469 9.20086 11.8175 9.20086 11.2886 9.22035C11.1699 8.77993 10.9238 8.39138 10.5927 8.09625L12.0447 5.16042L13.5112 8.15208V8.15201ZM7.2569 0.906996H16.8284L14.5677 7.57449C14.4705 7.59778 14.3748 7.62741 14.2814 7.66318L12.0482 3.10749L9.80863 7.63597C9.711 7.60246 9.61122 7.57557 9.50998 7.55548L7.2569 0.906996ZM16.5092 9.82064C16.5092 9.96127 16.4882 10.0971 16.4496 10.2254C16.3578 10.5274 16.1674 10.7898 15.9087 10.9706C15.6736 11.1356 15.3933 11.224 15.1061 11.2237C14.4582 11.2237 13.9117 10.7823 13.751 10.1844C13.7191 10.0658 13.703 9.94347 13.703 9.82064C13.703 9.62883 13.7417 9.44594 13.8117 9.27929C13.8478 9.19403 13.8922 9.11255 13.9444 9.03604C14.1969 8.66332 14.623 8.41753 15.1061 8.41753C15.1504 8.41753 15.1941 8.41979 15.2374 8.42389C15.9498 8.49025 16.5093 9.09117 16.5093 9.82064H16.5092ZM17.4161 9.82064C17.4161 8.69286 16.6035 7.75187 15.5333 7.55088L18.0934 0H5.99202L8.55612 7.56615C7.52305 7.79604 6.74814 8.71922 6.74814 9.82056C6.74814 10.6476 7.18517 11.3739 7.84015 11.7821C7.5251 12.2515 7.15153 12.6932 6.7234 13.0972C6.04439 13.7377 5.28799 14.2235 4.47252 14.5431C3.6511 14.0271 3.30389 13.0541 3.66446 12.2064L3.69273 12.14L3.74573 12.0153C4.64792 11.7006 5.29718 10.842 5.29718 9.83392C5.29718 8.56014 4.26093 7.52389 2.98722 7.52389C1.71343 7.52389 0.677179 8.56014 0.677179 9.83392C0.677179 10.4768 0.94149 11.059 1.36679 11.4782C1.28747 11.6463 1.20695 11.8138 1.12524 11.9807C0.736331 12.7794 0.295624 13.6846 0.128911 14.6899C-0.202114 16.6864 0.331879 18.2823 1.63259 19.1837C2.42184 19.7307 3.2234 19.9459 4.02997 19.9459C5.5487 19.9459 7.0851 19.1828 8.58778 18.4364C9.66997 17.8989 10.7891 17.3431 11.8944 17.0705C12.3057 16.969 12.7289 16.908 13.177 16.8434C14.0655 16.7152 14.9843 16.5827 15.7981 16.1114C16.7415 15.5649 17.3872 14.6483 17.5698 13.5967C17.7266 12.6939 17.538 11.7897 17.0779 11.0228C17.2996 10.661 17.4167 10.2449 17.4162 9.82056L17.4161 9.82064Z" fill="white"/>
</g>
<defs>
<clipPath id="clip0_124_3498">
<rect width="18.0919" height="20" fill="white" transform="translate(0.0332031)"/>
</clipPath>
</defs>
</svg>
