<svg width="16" height="20" viewBox="0 0 16 20" fill="none" xmlns="http://www.w3.org/2000/svg">
<g clip-path="url(#clip0_124_3435)">
<path d="M7.90187 19.9496L2.13001 18.3472L0.84375 3.92065H14.9773L13.6897 18.345L7.90187 19.9496Z" fill="#264DE4"/>
<path d="M12.588 17.4264L13.6883 5.1001H7.91113V18.723L12.588 17.4264Z" fill="#2965F1"/>
<path d="M3.79297 10.4507L3.95153 12.22H7.91103V10.4507H3.79297Z" fill="#EBEBEB"/>
<path d="M3.47363 6.86963L3.63446 8.639H7.91036V6.86963H3.47363Z" fill="#EBEBEB"/>
<path d="M7.91072 15.0459L7.90296 15.048L5.93243 14.5159L5.80645 13.1047H4.03027L4.27814 15.8829L7.90257 16.889L7.91072 16.8868V15.0459Z" fill="#EBEBEB"/>
<path d="M4.16992 0H6.31286V0.896177H5.0661V1.79235H6.31297V2.68848H4.16992V0Z" fill="black"/>
<path d="M6.74224 0H8.88523V0.77928H7.63842V0.935125H8.88523V2.72748H6.7423V1.90914H7.98911V1.7533H6.74219V0H6.74224Z" fill="black"/>
<path d="M9.31348 0H11.4565V0.77928H10.2097V0.935125H11.4565V2.72748H9.31348V1.90914H10.5603V1.7533H9.31353V0H9.31348Z" fill="black"/>
<path d="M12.0172 10.4509L12.3366 6.86963H7.90435V8.63899H10.3975L10.2365 10.4509H7.90435V12.2202H10.0831L9.8777 14.515L7.9043 15.0476V16.8884L11.5316 15.8831L11.5582 15.5842L11.974 10.926L12.0172 10.4509Z" fill="white"/>
</g>
<defs>
<clipPath id="clip0_124_3435">
<rect width="14.1828" height="20" fill="white" transform="translate(0.819336)"/>
</clipPath>
</defs>
</svg>
