<svg width="39" height="30" viewBox="0 0 39 30" fill="none" xmlns="http://www.w3.org/2000/svg">
<path d="M38.6802 8.07727V24.6093C38.6802 27.4675 36.3079 29.7836 33.3804 29.7836H5.62003C4.21446 29.7836 2.86645 29.2385 1.87256 28.2681C0.878674 27.2977 0.320313 25.9816 0.320312 24.6093V8.07727L18.8925 18.0513C19.2711 18.2543 19.7304 18.2543 20.1079 18.0513L38.6802 8.07628V8.07727ZM33.3804 0.216309C34.7639 0.216434 36.0925 0.744728 37.0823 1.68834C38.0722 2.63196 38.6449 3.91608 38.6781 5.2664L19.5002 15.5657L0.322331 5.26542L0.324351 5.17672C0.380883 3.8425 0.963553 2.58128 1.95051 1.6568C2.93747 0.732328 4.2523 0.216185 5.62003 0.216309H33.3804Z" fill="url(#paint0_linear_287_2313)"/>
<defs>
<linearGradient id="paint0_linear_287_2313" x1="-51.1598" y1="-17.4828" x2="43.0127" y2="24.5085" gradientUnits="userSpaceOnUse">
<stop stop-color="#00B2FF"/>
<stop offset="0.1252" stop-color="#0066FF"/>
<stop offset="0.437079" stop-color="#00A3FF"/>
<stop offset="0.8988" stop-color="#0093FD"/>
</linearGradient>
</defs>
</svg>
