<svg width="21" height="20" viewBox="0 0 21 20" fill="none" xmlns="http://www.w3.org/2000/svg">
<g clip-path="url(#clip0_141_686)">
<path d="M1.4707 1.0835H19.8036V18.9164H1.4707V1.0835Z" fill="#0C0824"/>
<path d="M1.47029 1.08357H19.8031V18.9164H1.47029V1.08357ZM0.636719 19.75H20.6367V0.25H0.636719V19.75ZM14.1203 8.25C13.4617 8.25 13.2367 8.58357 13.2367 8.85857C13.2367 9.15857 13.3867 9.36714 14.2703 9.825C15.5789 10.4586 15.9846 11.0664 15.9846 11.9586C15.9846 13.2921 14.9681 14.0086 13.5931 14.0086C13.003 14.0304 12.4165 13.9078 11.8846 13.6514C11.826 13.6264 11.8181 13.585 11.8181 13.5179V12.2914C11.8181 12.2079 11.8596 12.1829 11.9181 12.225C12.4177 12.5462 12.9992 12.7168 13.5931 12.7164C14.2517 12.7164 14.5267 12.4414 14.5267 12.0664C14.5267 11.7664 14.3353 11.5 13.4931 11.0664C12.3096 10.5 11.8181 9.92357 11.8181 8.96643C11.8181 7.89143 12.6596 7 14.1181 7C14.6259 6.9782 15.1328 7.0576 15.6096 7.23357C15.637 7.25139 15.6592 7.2762 15.6739 7.30545C15.6886 7.3347 15.6953 7.36734 15.6931 7.4V8.54286C15.6931 8.60929 15.6517 8.65143 15.5681 8.62643C15.1275 8.37279 14.6265 8.2432 14.1181 8.25143L14.1203 8.25ZM6.95315 9.24143C7.14458 9.25786 7.29458 9.25786 7.62815 9.25786C8.60315 9.25786 9.51958 8.91643 9.51958 7.59143C9.51958 6.53286 8.861 6 7.75315 6C7.41958 6 7.10315 6.01643 6.95315 6.025V9.24143ZM5.46958 4.81286C5.46958 4.75429 5.586 4.71286 5.65315 4.71286C6.36943 4.68359 7.08627 4.66978 7.80315 4.67143C10.1117 4.67143 11.0117 5.93786 11.0117 7.555C11.0117 9.67143 9.47815 10.58 7.59529 10.58C7.27886 10.58 7.17029 10.5636 6.94529 10.5636V13.7636C6.94529 13.83 6.92029 13.8636 6.84529 13.8636H5.57029C5.50386 13.8636 5.47029 13.8386 5.47029 13.7636V4.81643L5.46958 4.81286Z" fill="#31C5F0"/>
</g>
<defs>
<clipPath id="clip0_141_686">
<rect width="20" height="20" fill="white" transform="translate(0.636719)"/>
</clipPath>
</defs>
</svg>
