<svg width="52" height="53" viewBox="0 0 52 53" fill="none" xmlns="http://www.w3.org/2000/svg">
<path d="M8.38476 0.682561L48.8254 21.7252C49.6991 22.1799 50.4312 22.8655 50.9422 23.7074C51.4532 24.5493 51.7234 25.5153 51.7234 26.5002C51.7234 27.4851 51.4532 28.451 50.9422 29.293C50.4312 30.1349 49.6991 30.8205 48.8254 31.2752L8.38476 52.3178C7.56431 52.7447 6.64772 52.9529 5.72337 52.9225C4.79902 52.8921 3.8981 52.624 3.10749 52.1442C2.31687 51.6643 1.66322 50.9888 1.20959 50.1829C0.755948 49.3769 0.517618 48.4677 0.517578 47.5429V5.45753C0.517334 4.56378 0.739635 3.68403 1.16442 2.89768C1.58921 2.11133 2.20311 1.44313 2.95073 0.953372C3.69835 0.463616 4.55615 0.167722 5.44672 0.0923957C6.33729 0.017069 7.2326 0.164679 8.05186 0.521904L8.38476 0.682561Z" fill="white"/>
</svg>
