<svg width="20" height="21" viewBox="0 0 20 21" fill="none" xmlns="http://www.w3.org/2000/svg">
<path d="M3.2168 0.86665L18.4774 8.80728C18.8071 8.97884 19.0834 9.23756 19.2762 9.55527C19.469 9.87298 19.571 10.2375 19.571 10.6092C19.571 10.9808 19.469 11.3453 19.2762 11.663C19.0834 11.9807 18.8071 12.2395 18.4774 12.411L3.2168 20.3517C2.90719 20.5127 2.56131 20.5913 2.2125 20.5798C1.86369 20.5684 1.52372 20.4672 1.22537 20.2861C0.927024 20.105 0.680366 19.8501 0.509182 19.546C0.337998 19.2419 0.248062 18.8988 0.248047 18.5498V2.66853C0.247955 2.33126 0.331842 1.99928 0.492139 1.70254C0.652436 1.40581 0.884098 1.15366 1.16622 0.968843C1.44834 0.78403 1.77204 0.672372 2.1081 0.643946C2.44416 0.615521 2.78202 0.671223 3.09117 0.806025L3.2168 0.86665Z" fill="black"/>
</svg>
