<svg width="49" height="10" viewBox="0 0 49 10" fill="none" xmlns="http://www.w3.org/2000/svg">
<path d="M0.917 6.18V0.599999H2.033V6.132C2.033 6.732 2.209 7.204 2.561 7.548C2.921 7.892 3.425 8.064 4.073 8.064C4.721 8.064 5.221 7.892 5.573 7.548C5.933 7.204 6.113 6.732 6.113 6.132V0.599999H7.217V6.18C7.217 7.092 6.925 7.816 6.341 8.352C5.757 8.888 5.001 9.156 4.073 9.156C3.137 9.156 2.377 8.888 1.793 8.352C1.209 7.816 0.917 7.092 0.917 6.18ZM11.8034 2.844C12.5074 2.844 13.0714 3.068 13.4954 3.516C13.9194 3.956 14.1314 4.556 14.1314 5.316V9H13.0874V5.376C13.0874 4.896 12.9554 4.52 12.6914 4.248C12.4274 3.976 12.0634 3.84 11.5994 3.84C11.0634 3.84 10.6394 4.008 10.3274 4.344C10.0154 4.672 9.85944 5.164 9.85944 5.82V9H8.81544V3H9.85944V3.864C10.2754 3.184 10.9234 2.844 11.8034 2.844ZM16.1169 1.908C15.9169 1.908 15.7489 1.84 15.6129 1.704C15.4769 1.568 15.4089 1.404 15.4089 1.212C15.4089 1.02 15.4769 0.855999 15.6129 0.719999C15.7489 0.576 15.9169 0.504 16.1169 0.504C16.3089 0.504 16.4729 0.576 16.6089 0.719999C16.7449 0.855999 16.8129 1.02 16.8129 1.212C16.8129 1.404 16.7449 1.568 16.6089 1.704C16.4729 1.84 16.3089 1.908 16.1169 1.908ZM16.6329 9H15.5889V3H16.6329V9ZM21.4896 3V4.008H19.8936V7.26C19.8936 7.556 19.9496 7.768 20.0616 7.896C20.1816 8.016 20.3616 8.08 20.6016 8.088C20.8416 8.088 21.1376 8.08 21.4896 8.064V9C20.5696 9.12 19.8976 9.044 19.4736 8.772C19.0576 8.5 18.8496 7.996 18.8496 7.26V4.008H17.6616V3H18.8496V1.632L19.8936 1.32V3H21.4896ZM22.1848 0.599999H28.2448V1.656H25.7608V9H24.6568V1.656H22.1848V0.599999ZM33.9114 6.48H28.8834C28.9874 7.008 29.2314 7.424 29.6154 7.728C29.9994 8.024 30.4794 8.172 31.0554 8.172C31.8474 8.172 32.4234 7.88 32.7834 7.296L33.6714 7.8C33.0794 8.704 32.1994 9.156 31.0314 9.156C30.0874 9.156 29.3114 8.86 28.7034 8.268C28.1114 7.66 27.8154 6.904 27.8154 6C27.8154 5.088 28.1074 4.336 28.6914 3.744C29.2754 3.144 30.0314 2.844 30.9594 2.844C31.8394 2.844 32.5554 3.156 33.1074 3.78C33.6674 4.388 33.9474 5.132 33.9474 6.012C33.9474 6.164 33.9354 6.32 33.9114 6.48ZM30.9594 3.828C30.4074 3.828 29.9434 3.984 29.5674 4.296C29.1994 4.608 28.9714 5.032 28.8834 5.568H32.8914C32.8034 5.016 32.5834 4.588 32.2314 4.284C31.8794 3.98 31.4554 3.828 30.9594 3.828ZM35.8131 4.62C35.8131 5.004 36.2091 5.304 37.0011 5.52C37.2971 5.584 37.5451 5.652 37.7451 5.724C37.9531 5.788 38.1771 5.888 38.4171 6.024C38.6651 6.16 38.8531 6.34 38.9811 6.564C39.1091 6.788 39.1731 7.052 39.1731 7.356C39.1731 7.9 38.9611 8.336 38.5371 8.664C38.1131 8.992 37.5771 9.156 36.9291 9.156C36.3531 9.156 35.8531 9.032 35.4291 8.784C35.0131 8.528 34.7171 8.184 34.5411 7.752L35.4411 7.236C35.5371 7.524 35.7171 7.752 35.9811 7.92C36.2451 8.088 36.5611 8.172 36.9291 8.172C37.2891 8.172 37.5771 8.104 37.7931 7.968C38.0091 7.832 38.1171 7.628 38.1171 7.356C38.1171 6.948 37.7211 6.652 36.9291 6.468C36.6651 6.396 36.4651 6.34 36.3291 6.3C36.1931 6.26 36.0051 6.188 35.7651 6.084C35.5331 5.98 35.3571 5.872 35.2371 5.76C35.1171 5.64 35.0051 5.484 34.9011 5.292C34.8051 5.092 34.7571 4.872 34.7571 4.632C34.7571 4.112 34.9571 3.684 35.3571 3.348C35.7651 3.012 36.2731 2.844 36.8811 2.844C37.3691 2.844 37.8011 2.956 38.1771 3.18C38.5611 3.396 38.8491 3.7 39.0411 4.092L38.1651 4.584C37.9491 4.072 37.5211 3.816 36.8811 3.816C36.5771 3.816 36.3211 3.888 36.1131 4.032C35.9131 4.176 35.8131 4.372 35.8131 4.62ZM43.4388 3V4.008H41.8428V7.26C41.8428 7.556 41.8988 7.768 42.0108 7.896C42.1308 8.016 42.3108 8.08 42.5508 8.088C42.7908 8.088 43.0868 8.08 43.4388 8.064V9C42.5188 9.12 41.8468 9.044 41.4228 8.772C41.0068 8.5 40.7988 7.996 40.7988 7.26V4.008H39.6108V3H40.7988V1.632L41.8428 1.32V3H43.4388ZM45.2818 4.62C45.2818 5.004 45.6778 5.304 46.4698 5.52C46.7658 5.584 47.0138 5.652 47.2138 5.724C47.4218 5.788 47.6458 5.888 47.8858 6.024C48.1338 6.16 48.3218 6.34 48.4498 6.564C48.5778 6.788 48.6418 7.052 48.6418 7.356C48.6418 7.9 48.4298 8.336 48.0058 8.664C47.5818 8.992 47.0458 9.156 46.3978 9.156C45.8218 9.156 45.3218 9.032 44.8978 8.784C44.4818 8.528 44.1858 8.184 44.0098 7.752L44.9098 7.236C45.0058 7.524 45.1858 7.752 45.4498 7.92C45.7138 8.088 46.0298 8.172 46.3978 8.172C46.7578 8.172 47.0458 8.104 47.2618 7.968C47.4778 7.832 47.5858 7.628 47.5858 7.356C47.5858 6.948 47.1898 6.652 46.3978 6.468C46.1338 6.396 45.9338 6.34 45.7978 6.3C45.6618 6.26 45.4738 6.188 45.2338 6.084C45.0018 5.98 44.8258 5.872 44.7058 5.76C44.5858 5.64 44.4738 5.484 44.3698 5.292C44.2738 5.092 44.2258 4.872 44.2258 4.632C44.2258 4.112 44.4258 3.684 44.8258 3.348C45.2338 3.012 45.7418 2.844 46.3498 2.844C46.8378 2.844 47.2698 2.956 47.6458 3.18C48.0298 3.396 48.3178 3.7 48.5098 4.092L47.6338 4.584C47.4178 4.072 46.9898 3.816 46.3498 3.816C46.0458 3.816 45.7898 3.888 45.5818 4.032C45.3818 4.176 45.2818 4.372 45.2818 4.62Z" fill="#11100E"/>
</svg>
