<svg width="14" height="9" viewBox="0 0 14 9" fill="none" xmlns="http://www.w3.org/2000/svg">
<path fill-rule="evenodd" clip-rule="evenodd" d="M14 4.49986C14 4.63247 13.9473 4.75964 13.8536 4.85341C13.7598 4.94718 13.6326 4.99986 13.5 4.99986L1.707 4.99986L4.854 8.14586C4.94789 8.23974 5.00063 8.36708 5.00063 8.49986C5.00063 8.63263 4.94789 8.75997 4.854 8.85386C4.76011 8.94774 4.63278 9.00049 4.5 9.00049C4.36722 9.00049 4.23989 8.94774 4.146 8.85386L0.146 4.85386C0.0994368 4.80741 0.0624943 4.75224 0.0372877 4.69149C0.0120811 4.63074 -0.000893593 4.56562 -0.000893593 4.49986C-0.000893593 4.43409 0.0120811 4.36897 0.0372877 4.30822C0.0624943 4.24748 0.0994368 4.1923 0.146 4.14586L4.146 0.145857C4.23989 0.0519705 4.36722 -0.000774384 4.5 -0.000774384C4.63278 -0.000774384 4.76011 0.0519705 4.854 0.145857C4.94789 0.239743 5.00063 0.367082 5.00063 0.499857C5.00063 0.632632 4.94789 0.759971 4.854 0.853857L1.707 3.99986L13.5 3.99986C13.6326 3.99986 13.7598 4.05254 13.8536 4.1463C13.9473 4.24007 14 4.36725 14 4.49986Z" fill="#11100E"/>
</svg>
