<svg width="30" height="44" viewBox="0 0 30 44" fill="none" xmlns="http://www.w3.org/2000/svg">
<path d="M25.5927 14.9409C27.1862 14.148 28.4647 12.842 29.2211 11.2346C29.9775 9.62709 30.1676 7.81215 29.7606 6.08355C29.3537 4.35495 28.3734 2.81388 26.9786 1.70981C25.5837 0.605735 23.856 0.00329099 22.075 0H7.92096C6.13995 0.00329099 4.41218 0.605735 3.01735 1.70981C1.62252 2.81388 0.642275 4.35495 0.235294 6.08355C-0.171687 7.81215 0.0184216 9.62709 0.774844 11.2346C1.53127 12.842 2.80973 14.148 4.40326 14.9409C3.08176 15.5898 1.96888 16.5946 1.19067 17.8415C0.41246 19.0885 0 20.5278 0 21.9964C0 23.465 0.41246 24.9042 1.19067 26.1512C1.96888 27.3981 3.08176 28.4029 4.40326 29.0518C3.14059 29.6769 2.06843 30.627 1.29778 31.8039C0.527126 32.9808 0.0859854 34.3416 0.020022 35.7456C-0.0459414 37.1495 0.26567 38.5455 0.922599 39.789C1.57953 41.0326 2.5579 42.0785 3.75644 42.8185C4.95498 43.5585 6.33012 43.9657 7.73952 43.9979C9.14891 44.0302 10.5413 43.6863 11.7727 43.0019C13.004 42.3174 14.0294 41.3174 14.7429 40.1052C15.4563 38.893 15.8319 37.5127 15.8306 36.1072V26.8314C16.5581 27.7704 17.4887 28.5337 18.5532 29.0643C19.6177 29.5949 20.7886 29.8792 21.9786 29.896C23.1687 29.9127 24.3472 29.6615 25.4263 29.1611C26.5054 28.6607 27.4573 27.924 28.2111 27.0058C28.965 26.0876 29.5012 25.0117 29.78 23.8582C30.0587 22.7047 30.0728 21.5033 29.8211 20.3437C29.5694 19.184 29.0585 18.0959 28.3263 17.1604C27.5942 16.225 26.6598 15.4663 25.5927 14.9409ZM28.3194 7.88549C28.3194 9.53656 27.6615 11.12 26.4904 12.2875C25.3194 13.455 23.7311 14.1109 22.075 14.1109H15.8306V1.6601H22.075C23.7294 1.66557 25.3145 2.32322 26.4844 3.48952C27.6543 4.65582 28.3139 6.23609 28.3194 7.88549ZM17.2251 15.771C16.7097 16.1811 16.242 16.6475 15.8306 17.1613V15.771H17.2251ZM1.67653 7.88549C1.68202 6.23609 2.34168 4.65582 3.51154 3.48952C4.68141 2.32322 6.26652 1.66557 7.92096 1.6601H14.1654V14.1109H7.92096C6.26483 14.1109 4.67654 13.455 3.50548 12.2875C2.33443 11.12 1.67653 9.53656 1.67653 7.88549ZM7.92096 42.3326C6.26483 42.3326 4.67654 41.6767 3.50548 40.5092C2.33443 39.3418 1.67653 37.7583 1.67653 36.1072C1.67653 34.4562 2.33443 32.8727 3.50548 31.7052C4.67654 30.5377 6.26483 29.8818 7.92096 29.8818H14.1654V36.1072C14.1599 37.7566 13.5002 39.3369 12.3304 40.5032C11.1605 41.6695 9.57539 42.3271 7.92096 42.3326ZM14.1654 28.2217H7.92096C6.26483 28.2217 4.67654 27.5659 3.50548 26.3984C2.33443 25.2309 1.67653 23.6474 1.67653 21.9964C1.67653 20.3453 2.33443 18.7618 3.50548 17.5943C4.67654 16.4269 6.26483 15.771 7.92096 15.771H14.1654V28.2217ZM22.075 28.2217C20.4189 28.2217 18.8306 27.5659 17.6595 26.3984C16.4884 25.2309 15.8306 23.6474 15.8306 21.9964C15.8306 20.3453 16.4884 18.7618 17.6595 17.5943C18.8306 16.4269 20.4189 15.771 22.075 15.771C23.7311 15.771 25.3194 16.4269 26.4904 17.5943C27.6615 18.7618 28.3194 20.3453 28.3194 21.9964C28.3194 23.6474 27.6615 25.2309 26.4904 26.3984C25.3194 27.5659 23.7311 28.2217 22.075 28.2217Z" fill="black"/>
</svg>
