<svg width="14" height="20" viewBox="0 0 14 20" fill="none" xmlns="http://www.w3.org/2000/svg">
<path d="M11.633 6.79133C12.3574 6.43089 12.9385 5.83729 13.2823 5.10662C13.6261 4.37595 13.7126 3.55098 13.5276 2.76525C13.3426 1.97952 12.897 1.27903 12.263 0.777184C11.629 0.275334 10.8436 0.0014959 10.0341 0H3.60043C2.79089 0.0014959 2.00554 0.275334 1.37152 0.777184C0.737511 1.27903 0.291943 1.97952 0.106952 2.76525C-0.0780396 3.55098 0.00837347 4.37595 0.352202 5.10662C0.69603 5.83729 1.27715 6.43089 2.00148 6.79133C1.4008 7.08627 0.894947 7.543 0.541214 8.10979C0.187482 8.67659 0 9.3308 0 9.99834C0 10.6659 0.187482 11.3201 0.541214 11.8869C0.894947 12.4537 1.4008 12.9104 2.00148 13.2054C1.42754 13.4895 0.940197 13.9214 0.5899 14.4563C0.239603 14.9913 0.0390843 15.6098 0.0091009 16.248C-0.0208825 16.8861 0.120759 17.5207 0.419363 18.0859C0.717968 18.6512 1.16268 19.1266 1.70747 19.4629C2.25226 19.7993 2.87733 19.9844 3.51796 19.9991C4.1586 20.0137 4.79152 19.8574 5.35121 19.5463C5.9109 19.2352 6.37702 18.7806 6.70132 18.2296C7.02561 17.6786 7.1963 17.0512 7.19571 16.4124V12.1961C7.52639 12.6229 7.94942 12.9699 8.43329 13.211C8.91715 13.4522 9.44937 13.5815 9.99029 13.5891C10.5312 13.5967 11.0669 13.4825 11.5574 13.2551C12.0479 13.0276 12.4806 12.6927 12.8232 12.2754C13.1659 11.858 13.4096 11.369 13.5364 10.8446C13.6631 10.3203 13.6695 9.77425 13.555 9.24712C13.4406 8.71999 13.2084 8.2254 12.8756 7.80019C12.5428 7.37499 12.1181 7.03013 11.633 6.79133ZM12.8725 3.58431C12.8725 4.3348 12.5734 5.05455 12.0411 5.58523C11.5088 6.1159 10.7869 6.41403 10.0341 6.41403H7.19571V0.754592H10.0341C10.7861 0.757079 11.5066 1.05601 12.0384 1.58615C12.5701 2.11628 12.87 2.83459 12.8725 3.58431ZM7.82961 7.16862C7.59534 7.35507 7.38272 7.56704 7.19571 7.80059V7.16862H7.82961ZM0.762061 3.58431C0.764555 2.83459 1.0644 2.11628 1.59616 1.58615C2.12791 1.05601 2.84842 0.757079 3.60043 0.754592H6.43881V6.41403H3.60043C2.84765 6.41403 2.1257 6.1159 1.5934 5.58523C1.0611 5.05455 0.762061 4.3348 0.762061 3.58431ZM3.60043 19.2421C2.84765 19.2421 2.1257 18.944 1.5934 18.4133C1.0611 17.8826 0.762061 17.1629 0.762061 16.4124C0.762061 15.6619 1.0611 14.9421 1.5934 14.4115C2.1257 13.8808 2.84765 13.5827 3.60043 13.5827H6.43881V16.4124C6.43631 17.1621 6.13647 17.8804 5.60471 18.4105C5.07295 18.9407 4.35245 19.2396 3.60043 19.2421ZM6.43881 12.8281H3.60043C2.84765 12.8281 2.1257 12.5299 1.5934 11.9993C1.0611 11.4686 0.762061 10.7488 0.762061 9.99834C0.762061 9.24786 1.0611 8.52811 1.5934 7.99743C2.1257 7.46675 2.84765 7.16862 3.60043 7.16862H6.43881V12.8281ZM10.0341 12.8281C9.28129 12.8281 8.55934 12.5299 8.02705 11.9993C7.49475 11.4686 7.19571 10.7488 7.19571 9.99834C7.19571 9.24786 7.49475 8.52811 8.02705 7.99743C8.55934 7.46675 9.28129 7.16862 10.0341 7.16862C10.7869 7.16862 11.5088 7.46675 12.0411 7.99743C12.5734 8.52811 12.8725 9.24786 12.8725 9.99834C12.8725 10.7488 12.5734 11.4686 12.0411 11.9993C11.5088 12.5299 10.7869 12.8281 10.0341 12.8281Z" fill="#11100E"/>
</svg>
