<svg width="24" height="10" viewBox="0 0 24 10" fill="none" xmlns="http://www.w3.org/2000/svg">
<path d="M0.9 0.599999H4.176C5.312 0.599999 6.26 1.008 7.02 1.824C7.78 2.632 8.16 3.624 8.16 4.8C8.16 5.968 7.78 6.964 7.02 7.788C6.26 8.596 5.312 9 4.176 9H0.9V0.599999ZM2.016 7.944H4.176C5.032 7.944 5.732 7.644 6.276 7.044C6.82 6.436 7.092 5.688 7.092 4.8C7.092 3.912 6.82 3.164 6.276 2.556C5.732 1.956 5.032 1.656 4.176 1.656H2.016V7.944ZM14.7333 6.864V0.599999H15.8493V9H14.9493L10.6293 2.724V9H9.51328V0.599999H10.4133L14.7333 6.864ZM20.2292 9.156C19.4452 9.156 18.7732 8.976 18.2132 8.616C17.6612 8.248 17.2732 7.74 17.0492 7.092L18.0092 6.54C18.3292 7.556 19.0772 8.064 20.2532 8.064C20.8212 8.064 21.2572 7.948 21.5612 7.716C21.8732 7.484 22.0292 7.168 22.0292 6.768C22.0292 6.376 21.8772 6.076 21.5732 5.868C21.3012 5.684 20.7932 5.472 20.0492 5.232L19.2452 4.968C19.0692 4.896 18.8372 4.792 18.5492 4.656C18.2692 4.512 18.0652 4.368 17.9372 4.224C17.5852 3.84 17.4092 3.372 17.4092 2.82C17.4092 2.084 17.6652 1.508 18.1772 1.092C18.6892 0.659999 19.3132 0.443999 20.0492 0.443999C20.7052 0.443999 21.2812 0.607999 21.7772 0.935999C22.2732 1.264 22.6452 1.712 22.8932 2.28L21.9572 2.82C21.5972 1.956 20.9612 1.524 20.0492 1.524C19.5932 1.524 19.2252 1.636 18.9452 1.86C18.6652 2.084 18.5252 2.388 18.5252 2.772C18.5252 3.14 18.6572 3.42 18.9212 3.612C19.1932 3.812 19.6492 4.012 20.2892 4.212L20.7812 4.368C21.0532 4.472 21.2012 4.528 21.2252 4.536C21.4812 4.632 21.7612 4.764 22.0652 4.932C22.2812 5.052 22.4972 5.236 22.7132 5.484C22.9932 5.764 23.1332 6.184 23.1332 6.744C23.1332 7.48 22.8652 8.068 22.3292 8.508C21.7852 8.94 21.0852 9.156 20.2292 9.156Z" fill="#11100E"/>
</svg>
