<svg width="21" height="22" viewBox="0 0 21 22" fill="none" xmlns="http://www.w3.org/2000/svg">
<g clip-path="url(#clip0_549_1572)">
<path fill-rule="evenodd" clip-rule="evenodd" d="M0.5 11.2381C0.5 16.2098 4.11083 20.344 8.83333 21.1823V13.9598H6.33333V11.1823H8.83333V8.95979C8.83333 6.45979 10.4442 5.07146 12.7225 5.07146C13.4442 5.07146 14.2225 5.18229 14.9442 5.29312V7.84896H13.6667C12.4442 7.84896 12.1667 8.45979 12.1667 9.23812V11.1823H14.8333L14.3892 13.9598H12.1667V21.1823C16.8892 20.344 20.5 16.2106 20.5 11.2381C20.5 5.70729 16 1.18229 10.5 1.18229C5 1.18229 0.5 5.70729 0.5 11.2381Z" fill="white"/>
</g>
<defs>
<clipPath id="clip0_549_1572">
<rect width="20" height="20.8333" fill="white" transform="translate(0.5 0.583332)"/>
</clipPath>
</defs>
</svg>
