<svg width="20" height="21" viewBox="0 0 20 21" fill="none" xmlns="http://www.w3.org/2000/svg">
<path d="M10.0007 7.46459C8.20874 7.46459 6.74634 8.92699 6.74634 10.719C6.74634 12.511 8.20874 13.9734 10.0007 13.9734C11.7927 13.9734 13.2551 12.511 13.2551 10.719C13.2551 8.92699 11.7927 7.46459 10.0007 7.46459ZM19.7615 10.719C19.7615 9.37133 19.7737 8.03588 19.698 6.69067C19.6223 5.12817 19.2659 3.74145 18.1233 2.59887C16.9783 1.45385 15.594 1.09985 14.0315 1.02416C12.6838 0.94848 11.3484 0.960687 10.0032 0.960687C8.65552 0.960687 7.32007 0.94848 5.97485 1.02416C4.41235 1.09985 3.02563 1.45629 1.88305 2.59887C0.738031 3.74389 0.384027 5.12817 0.308343 6.69067C0.23266 8.03832 0.244867 9.37377 0.244867 10.719C0.244867 12.0642 0.23266 13.4021 0.308343 14.7473C0.384027 16.3098 0.740473 17.6965 1.88305 18.8391C3.02807 19.9841 4.41235 20.3381 5.97485 20.4138C7.32251 20.4895 8.65796 20.4773 10.0032 20.4773C11.3508 20.4773 12.6863 20.4895 14.0315 20.4138C15.594 20.3381 16.9807 19.9817 18.1233 18.8391C19.2683 17.6941 19.6223 16.3098 19.698 14.7473C19.7761 13.4021 19.7615 12.0666 19.7615 10.719ZM10.0007 15.7263C7.22973 15.7263 4.9934 13.49 4.9934 10.719C4.9934 7.94799 7.22973 5.71166 10.0007 5.71166C12.7717 5.71166 15.0081 7.94799 15.0081 10.719C15.0081 13.49 12.7717 15.7263 10.0007 15.7263ZM15.2131 6.67602C14.5662 6.67602 14.0437 6.15356 14.0437 5.50658C14.0437 4.85961 14.5662 4.33715 15.2131 4.33715C15.8601 4.33715 16.3826 4.85961 16.3826 5.50658C16.3828 5.66021 16.3526 5.81237 16.2939 5.95434C16.2352 6.0963 16.1491 6.2253 16.0405 6.33393C15.9319 6.44256 15.8029 6.52869 15.6609 6.58739C15.5189 6.64609 15.3668 6.67621 15.2131 6.67602Z" fill="white"/>
</svg>
