<svg width="38" height="12" viewBox="0 0 38 12" fill="none" xmlns="http://www.w3.org/2000/svg">
<path d="M0.216 1.6H6.276V2.656H3.792V10H2.688V2.656H0.216V1.6ZM10.848 10.156C9.568 10.156 8.516 9.736 7.692 8.896C6.868 8.064 6.456 7.032 6.456 5.8C6.456 4.568 6.868 3.536 7.692 2.704C8.516 1.864 9.568 1.444 10.848 1.444C11.608 1.444 12.312 1.628 12.96 1.996C13.608 2.364 14.112 2.86 14.472 3.484L13.5 4.048C13.26 3.584 12.9 3.216 12.42 2.944C11.948 2.664 11.424 2.524 10.848 2.524C9.872 2.524 9.08 2.836 8.472 3.46C7.864 4.076 7.56 4.856 7.56 5.8C7.56 6.736 7.864 7.512 8.472 8.128C9.08 8.752 9.872 9.064 10.848 9.064C11.424 9.064 11.948 8.928 12.42 8.656C12.9 8.376 13.26 8.008 13.5 7.552L14.472 8.104C14.12 8.728 13.62 9.228 12.972 9.604C12.332 9.972 11.624 10.156 10.848 10.156ZM15.7359 1.6H18.7839C19.5519 1.6 20.1959 1.86 20.7159 2.38C21.2359 2.9 21.4959 3.54 21.4959 4.3C21.4959 5.06 21.2359 5.7 20.7159 6.22C20.1959 6.74 19.5519 7 18.7839 7H16.8519V10H15.7359V1.6ZM16.8519 5.956H18.7839C19.2559 5.956 19.6399 5.8 19.9359 5.488C20.2399 5.16 20.3919 4.764 20.3919 4.3C20.3919 3.82 20.2399 3.424 19.9359 3.112C19.6319 2.8 19.2479 2.644 18.7839 2.644H16.8519V5.956ZM27.7941 0.4L22.9941 11.2H22.3701L27.1701 0.4H27.7941ZM29.1539 10V1.6H30.2699V10H29.1539ZM32.0719 1.6H35.1199C35.8879 1.6 36.5319 1.86 37.0519 2.38C37.5719 2.9 37.8319 3.54 37.8319 4.3C37.8319 5.06 37.5719 5.7 37.0519 6.22C36.5319 6.74 35.8879 7 35.1199 7H33.1879V10H32.0719V1.6ZM33.1879 5.956H35.1199C35.5919 5.956 35.9759 5.8 36.2719 5.488C36.5759 5.16 36.7279 4.764 36.7279 4.3C36.7279 3.82 36.5759 3.424 36.2719 3.112C35.9679 2.8 35.5839 2.644 35.1199 2.644H33.1879V5.956Z" fill="#11100E"/>
</svg>
