<svg width="20" height="21" viewBox="0 0 20 21" fill="none" xmlns="http://www.w3.org/2000/svg">
<path fill-rule="evenodd" clip-rule="evenodd" d="M2.47327e-07 2.32423C2.47327e-07 1.88108 0.176042 1.45608 0.489398 1.14272C0.802754 0.829364 1.22776 0.653323 1.67091 0.653323H18.3273C18.5469 0.652964 18.7644 0.695925 18.9674 0.779747C19.1704 0.863568 19.3548 0.986604 19.5102 1.14181C19.6656 1.29702 19.7888 1.48134 19.8729 1.68424C19.9569 1.88714 20.0001 2.10462 20 2.32423V18.9806C20.0002 19.2003 19.9572 19.4178 19.8732 19.6208C19.7893 19.8238 19.6662 20.0082 19.5109 20.1636C19.3556 20.319 19.1713 20.4422 18.9683 20.5262C18.7654 20.6103 18.5478 20.6534 18.3282 20.6533H1.67091C1.45141 20.6533 1.23405 20.6101 1.03127 20.526C0.828487 20.442 0.644247 20.3189 0.489077 20.1636C0.333906 20.0084 0.210847 19.824 0.12693 19.6212C0.0430121 19.4184 -0.000119178 19.201 2.47327e-07 18.9815V2.32423ZM7.91636 8.27878H10.6245V9.63878C11.0155 8.85696 12.0155 8.15332 13.5182 8.15332C16.3991 8.15332 17.0818 9.7106 17.0818 12.5679V17.8606H14.1664V13.2188C14.1664 11.5915 13.7755 10.6733 12.7827 10.6733C11.4055 10.6733 10.8327 11.6633 10.8327 13.2188V17.8606H7.91636V8.27878ZM2.91636 17.7361H5.83273V8.15332H2.91636V17.7351V17.7361ZM6.25 5.02787C6.2555 5.27757 6.21107 5.52586 6.11931 5.75815C6.02755 5.99045 5.89032 6.20208 5.71566 6.38062C5.54101 6.55917 5.33245 6.70103 5.10223 6.79787C4.87201 6.89472 4.62476 6.94461 4.375 6.94461C4.12524 6.94461 3.87799 6.89472 3.64777 6.79787C3.41755 6.70103 3.20899 6.55917 3.03433 6.38062C2.85968 6.20208 2.72245 5.99045 2.63069 5.75815C2.53893 5.52586 2.4945 5.27757 2.5 5.02787C2.51079 4.53774 2.71308 4.07131 3.06353 3.72849C3.41399 3.38567 3.88475 3.1937 4.375 3.1937C4.86525 3.1937 5.33601 3.38567 5.68647 3.72849C6.03692 4.07131 6.23921 4.53774 6.25 5.02787Z" fill="white"/>
</svg>
