<svg width="20" height="22" viewBox="0 0 20 22" fill="none" xmlns="http://www.w3.org/2000/svg">
<g clip-path="url(#clip0_549_1577)">
<path fill-rule="evenodd" clip-rule="evenodd" d="M2.47327e-07 2.86977C2.47327e-07 2.42662 0.176042 2.00162 0.489398 1.68826C0.802754 1.3749 1.22776 1.19886 1.67091 1.19886H18.3273C18.5469 1.1985 18.7644 1.24147 18.9674 1.32529C19.1704 1.40911 19.3548 1.53214 19.5102 1.68735C19.6656 1.84256 19.7888 2.02688 19.8729 2.22978C19.9569 2.43268 20.0001 2.65016 20 2.86977V19.5261C20.0002 19.7458 19.9572 19.9633 19.8732 20.1663C19.7893 20.3693 19.6662 20.5538 19.5109 20.7091C19.3556 20.8645 19.1713 20.9877 18.9683 21.0718C18.7654 21.1558 18.5478 21.199 18.3282 21.1989H1.67091C1.45141 21.1989 1.23405 21.1556 1.03127 21.0716C0.828487 20.9876 0.644247 20.8644 0.489077 20.7091C0.333906 20.5539 0.210847 20.3696 0.12693 20.1668C0.0430121 19.9639 -0.000119178 19.7465 2.47327e-07 19.527V2.86977ZM7.91636 8.82432H10.6245V10.1843C11.0155 9.4025 12.0155 8.69886 13.5182 8.69886C16.3991 8.69886 17.0818 10.2561 17.0818 13.1134V18.4061H14.1664V13.7643C14.1664 12.137 13.7755 11.2189 12.7827 11.2189C11.4055 11.2189 10.8327 12.2089 10.8327 13.7643V18.4061H7.91636V8.82432ZM2.91636 18.2816H5.83273V8.69886H2.91636V18.2807V18.2816ZM6.25 5.57341C6.2555 5.82311 6.21107 6.0714 6.11931 6.30369C6.02755 6.53599 5.89032 6.74762 5.71566 6.92616C5.54101 7.10471 5.33245 7.24657 5.10223 7.34341C4.87201 7.44026 4.62476 7.49015 4.375 7.49015C4.12524 7.49015 3.87799 7.44026 3.64777 7.34341C3.41755 7.24657 3.20899 7.10471 3.03433 6.92616C2.85968 6.74762 2.72245 6.53599 2.63069 6.30369C2.53893 6.0714 2.4945 5.82311 2.5 5.57341C2.51079 5.08328 2.71308 4.61685 3.06353 4.27403C3.41399 3.93121 3.88475 3.73924 4.375 3.73924C4.86525 3.73924 5.33601 3.93121 5.68647 4.27403C6.03692 4.61685 6.23921 5.08328 6.25 5.57341Z" fill="white"/>
</g>
<defs>
<clipPath id="clip0_549_1577">
<rect width="20" height="20.9091" fill="white" transform="translate(0 0.545456)"/>
</clipPath>
</defs>
</svg>
