<svg width="60" height="60" viewBox="0 0 60 60" fill="none" xmlns="http://www.w3.org/2000/svg">
<rect width="60" height="60" rx="30" fill="#FF970C"/>
<path d="M20 24.5045C21.3261 24.5045 22.5979 25.0313 23.5355 25.969C24.4732 26.9067 25 28.1785 25 29.5045C25 30.8306 24.4732 32.1024 23.5355 33.0401C22.5979 33.9778 21.3261 34.5045 20 34.5045C18.6739 34.5045 17.4021 33.9778 16.4645 33.0401C15.5268 32.1024 15 30.8306 15 29.5045C15 28.1785 15.5268 26.9067 16.4645 25.969C17.4021 25.0313 18.6739 24.5045 20 24.5045ZM26.5625 25.872C25.8098 24.5102 24.6522 23.4161 23.25 22.7415C21.8478 22.0669 20.2705 21.8451 18.7366 22.1069C17.2028 22.3687 15.7883 23.1011 14.6892 24.2026C13.5902 25.304 12.8609 26.7201 12.6025 28.2545H11.25C10.9185 28.2545 10.6005 28.3862 10.3661 28.6207C10.1317 28.8551 10 29.173 10 29.5045C10 29.8361 10.1317 30.154 10.3661 30.3884C10.6005 30.6228 10.9185 30.7545 11.25 30.7545H12.6025C12.9127 32.6119 13.9103 34.2845 15.397 35.4402C16.8836 36.5959 18.7507 37.1501 20.6271 36.9926C22.5036 36.8352 24.2521 35.9777 25.5254 34.5904C26.7987 33.2031 27.5036 31.3876 27.5 29.5045C27.5 28.8415 27.7634 28.2056 28.2322 27.7368C28.7011 27.2679 29.337 27.0045 30 27.0045C30.663 27.0045 31.2989 27.2679 31.7678 27.7368C32.2366 28.2056 32.5 28.8415 32.5 29.5045C32.4964 31.3876 33.2013 33.2031 34.4746 34.5904C35.7479 35.9777 37.4964 36.8352 39.3729 36.9926C41.2493 37.1501 43.1164 36.5959 44.603 35.4402C46.0897 34.2845 47.0873 32.6119 47.3975 30.7545H48.75C49.0815 30.7545 49.3995 30.6228 49.6339 30.3884C49.8683 30.154 50 29.8361 50 29.5045C50 29.173 49.8683 28.8551 49.6339 28.6207C49.3995 28.3862 49.0815 28.2545 48.75 28.2545H47.3975C47.1391 26.7201 46.4098 25.304 45.3108 24.2026C44.2117 23.1011 42.7972 22.3687 41.2634 22.1069C39.7295 21.8451 38.1522 22.0669 36.75 22.7415C35.3478 23.4161 34.1902 24.5102 33.4375 25.872C32.5096 24.9919 31.2789 24.5023 30 24.5045C28.67 24.5045 27.46 25.0245 26.5625 25.872ZM45 29.5045C45 30.8306 44.4732 32.1024 43.5355 33.0401C42.5979 33.9778 41.3261 34.5045 40 34.5045C38.6739 34.5045 37.4021 33.9778 36.4645 33.0401C35.5268 32.1024 35 30.8306 35 29.5045C35 28.1785 35.5268 26.9067 36.4645 25.969C37.4021 25.0313 38.6739 24.5045 40 24.5045C41.3261 24.5045 42.5979 25.0313 43.5355 25.969C44.4732 26.9067 45 28.1785 45 29.5045Z" fill="black"/>
</svg>
