<svg width="74" height="76" viewBox="0 0 74 76" fill="none" xmlns="http://www.w3.org/2000/svg">
<path d="M11.7949 1.45441L69.0223 31.2318C70.2586 31.8751 71.2947 32.8453 72.0177 34.0367C72.7408 35.2281 73.1232 36.5951 73.1232 37.9888C73.1232 39.3825 72.7408 40.7494 72.0177 41.9408C71.2947 43.1323 70.2586 44.1025 69.0223 44.7458L11.7949 74.5232C10.6339 75.1272 9.33684 75.4219 8.0288 75.3789C6.72076 75.3358 5.44587 74.9565 4.32707 74.2774C3.20827 73.5984 2.28331 72.6425 1.64137 71.502C0.999425 70.3615 0.662166 69.0749 0.66211 67.7661V8.21144C0.661763 6.9467 0.976342 5.70177 1.57746 4.58901C2.17857 3.47625 3.0473 2.53068 4.10525 1.83763C5.1632 1.14458 6.37707 0.725862 7.63731 0.619267C8.89755 0.512673 10.1645 0.721554 11.3238 1.22706L11.7949 1.45441Z" fill="url(#paint0_linear_223_878)"/>
<defs>
<linearGradient id="paint0_linear_223_878" x1="41.499" y1="27.1923" x2="123.675" y2="62.6814" gradientUnits="userSpaceOnUse">
<stop stop-color="#FFA522"/>
<stop offset="0.298461" stop-color="#FF8E00"/>
<stop offset="0.671554" stop-color="#FF7500"/>
<stop offset="1" stop-color="#FF4C00"/>
</linearGradient>
</defs>
</svg>
