<svg width="20" height="20" viewBox="0 0 20 20" fill="none" xmlns="http://www.w3.org/2000/svg">
<g clip-path="url(#clip0_124_3496)">
<path d="M17.4092 0.000263047C17.4331 -0.0012714 17.4569 0.00392994 17.478 0.0152753C17.4991 0.0266207 17.5165 0.0436545 17.5284 0.0644388C17.5403 0.0852231 17.5461 0.108923 17.5452 0.132843C17.5442 0.156763 17.5366 0.179942 17.5232 0.199743L12.5939 6.89543C12.5761 6.91559 12.5541 6.93172 12.5296 6.94277C12.505 6.95382 12.4784 6.95954 12.4515 6.95954C12.4246 6.95954 12.3979 6.95382 12.3734 6.94277C12.3488 6.93172 12.3269 6.91559 12.309 6.89543L10.571 4.95796C10.55 4.93621 10.5244 4.91945 10.4961 4.90891C10.4678 4.89836 10.4375 4.89431 10.4074 4.89705C10.3773 4.8998 10.3483 4.90926 10.3223 4.92474C10.2964 4.94022 10.2743 4.96133 10.2576 4.98651L9.20331 6.32562C9.18694 6.36263 9.18095 6.4034 9.18598 6.44356C9.19101 6.48371 9.20687 6.52174 9.23186 6.55357L12.366 9.80168C12.3838 9.82185 12.4058 9.83799 12.4303 9.84905C12.4549 9.86011 12.4815 9.86583 12.5085 9.86583C12.5354 9.86583 12.562 9.86011 12.5866 9.84905C12.6112 9.83799 12.6331 9.82185 12.651 9.80168L18.8052 2.87811C18.823 2.85899 18.846 2.84558 18.8714 2.83959C18.8968 2.8336 18.9234 2.83529 18.9479 2.84445C18.9723 2.85362 18.9935 2.86984 19.0087 2.89106C19.0239 2.91227 19.0324 2.93753 19.0332 2.96361V19.8027C19.0344 19.8217 19.0315 19.8407 19.0247 19.8585C19.018 19.8763 19.0075 19.8925 18.994 19.906C18.9806 19.9195 18.9644 19.9299 18.9466 19.9367C18.9287 19.9434 18.9097 19.9463 18.8907 19.9451H0.142783C0.123767 19.9463 0.104719 19.9434 0.0869003 19.9367C0.0690814 19.9299 0.0528984 19.9195 0.039423 19.906C0.0259476 19.8925 0.0154874 19.8763 0.00873508 19.8585C0.00198274 19.8407 -0.000907609 19.8217 0.00025544 19.8027V0.142791C-0.000918593 0.123768 0.00196361 0.104714 0.00871103 0.0868891C0.0154585 0.0690647 0.025917 0.0528778 0.0393936 0.0394012C0.0528702 0.0259246 0.0690571 0.0154661 0.0868815 0.00871864C0.104706 0.00197122 0.123761 -0.000910986 0.142783 0.000263047H17.4092ZM12.5655 11.3688C12.1457 11.3614 11.7288 11.4391 11.3398 11.5973C10.9509 11.7554 10.5981 11.9906 10.3025 12.2888C10.007 12.587 9.77489 12.942 9.62026 13.3323C9.46563 13.7226 9.39165 14.1402 9.40279 14.5599C9.40279 16.5259 10.8274 17.7796 12.6794 17.7796C13.5367 17.801 14.3774 17.5407 15.0728 17.0388C15.104 17.0105 15.124 16.9719 15.1293 16.9301C15.1345 16.8883 15.1246 16.846 15.1013 16.8108L14.5884 16.0415C14.5606 16.0096 14.5219 15.9891 14.4799 15.9838C14.4378 15.9785 14.3953 15.989 14.3605 16.0131C13.9147 16.3175 13.3901 16.4858 12.8504 16.4974C11.8531 16.4974 11.2263 15.8706 11.1124 15.1298C11.1134 15.115 11.1197 15.1011 11.1302 15.0906C11.1407 15.0802 11.1546 15.0738 11.1693 15.0728H15.4717C15.5161 15.0698 15.5578 15.0508 15.5893 15.0194C15.6207 14.988 15.6397 14.9462 15.6426 14.9018V14.7308C15.6426 12.7364 14.389 11.3687 12.5655 11.3687V11.3688ZM8.32011 10.2861C7.45468 9.57867 6.35964 9.21366 5.24286 9.26034C3.30539 9.26034 2.10873 10.4 2.10873 11.7677C2.10873 14.8734 6.83847 13.8761 6.83847 15.3293C6.83847 15.7851 6.38256 16.241 5.41386 16.241C4.49381 16.2486 3.60615 15.9017 2.93505 15.2722C2.91525 15.2537 2.89171 15.2396 2.86602 15.2309C2.84034 15.2223 2.81309 15.2192 2.7861 15.2218C2.75912 15.2245 2.73302 15.233 2.70956 15.2466C2.6861 15.2602 2.66582 15.2786 2.65007 15.3007L1.90933 16.3264C1.88606 16.3616 1.87615 16.4039 1.88139 16.4457C1.88663 16.4875 1.90667 16.5261 1.93788 16.5544C2.70717 17.2667 3.78992 17.7511 5.29996 17.7511C7.52234 17.7511 8.60509 16.6113 8.66204 15.1298C8.66204 12.0526 3.9323 12.9359 3.9323 11.6252C3.9323 11.1409 4.35974 10.7989 5.10048 10.7989C5.91711 10.7877 6.71245 11.0596 7.35141 11.5682C7.37 11.5835 7.39146 11.5948 7.4145 11.6016C7.43755 11.6085 7.46173 11.6106 7.48562 11.608C7.50951 11.6053 7.53263 11.5979 7.55362 11.5862C7.57461 11.5745 7.59304 11.5587 7.60784 11.5397L8.34866 10.5425C8.36389 10.5239 8.37525 10.5025 8.38208 10.4794C8.3889 10.4564 8.39105 10.4322 8.3884 10.4083C8.38575 10.3844 8.37834 10.3613 8.36663 10.3403C8.35492 10.3193 8.33912 10.3009 8.32018 10.2861H8.32011ZM12.5939 12.6224C13.3689 12.5791 14.038 13.1597 14.1041 13.9331C14.103 13.9479 14.0967 13.9618 14.0863 13.9723C14.0758 13.9828 14.0619 13.9891 14.0471 13.9901H11.1408C11.126 13.9891 11.1121 13.9828 11.1016 13.9723C11.0912 13.9618 11.0848 13.9479 11.0838 13.9331C11.1791 13.1749 11.8299 12.6101 12.5939 12.6224Z" fill="#2CB134"/>
</g>
<defs>
<clipPath id="clip0_124_3496">
<rect width="19.0335" height="20" fill="white"/>
</clipPath>
</defs>
</svg>
