<svg width="30" height="10" viewBox="0 0 30 10" fill="none" xmlns="http://www.w3.org/2000/svg">
<path d="M3.612 9.156C2.828 9.156 2.156 8.976 1.596 8.616C1.044 8.248 0.656 7.74 0.432 7.092L1.392 6.54C1.712 7.556 2.46 8.064 3.636 8.064C4.204 8.064 4.64 7.948 4.944 7.716C5.256 7.484 5.412 7.168 5.412 6.768C5.412 6.376 5.26 6.076 4.956 5.868C4.684 5.684 4.176 5.472 3.432 5.232L2.628 4.968C2.452 4.896 2.22 4.792 1.932 4.656C1.652 4.512 1.448 4.368 1.32 4.224C0.968 3.84 0.792 3.372 0.792 2.82C0.792 2.084 1.048 1.508 1.56 1.092C2.072 0.659999 2.696 0.443999 3.432 0.443999C4.088 0.443999 4.664 0.607999 5.16 0.935999C5.656 1.264 6.028 1.712 6.276 2.28L5.34 2.82C4.98 1.956 4.344 1.524 3.432 1.524C2.976 1.524 2.608 1.636 2.328 1.86C2.048 2.084 1.908 2.388 1.908 2.772C1.908 3.14 2.04 3.42 2.304 3.612C2.576 3.812 3.032 4.012 3.672 4.212L4.164 4.368C4.436 4.472 4.584 4.528 4.608 4.536C4.864 4.632 5.144 4.764 5.448 4.932C5.664 5.052 5.88 5.236 6.096 5.484C6.376 5.764 6.516 6.184 6.516 6.744C6.516 7.48 6.248 8.068 5.712 8.508C5.168 8.94 4.468 9.156 3.612 9.156ZM14.3789 0.599999H15.6389V9H14.5349V2.436L11.7869 7.008H11.6429L8.89491 2.448V9H7.77891V0.599999H9.03891L11.7149 5.04L14.3789 0.599999ZM16.7512 0.599999H22.8112V1.656H20.3272V9H19.2232V1.656H16.7512V0.599999ZM23.9156 0.599999H26.9636C27.7316 0.599999 28.3756 0.859999 28.8956 1.38C29.4156 1.9 29.6756 2.54 29.6756 3.3C29.6756 4.06 29.4156 4.7 28.8956 5.22C28.3756 5.74 27.7316 6 26.9636 6H25.0316V9H23.9156V0.599999ZM25.0316 4.956H26.9636C27.4356 4.956 27.8196 4.8 28.1156 4.488C28.4196 4.16 28.5716 3.764 28.5716 3.3C28.5716 2.82 28.4196 2.424 28.1156 2.112C27.8116 1.8 27.4276 1.644 26.9636 1.644H25.0316V4.956Z" fill="#11100E"/>
</svg>
