<svg width="16" height="18" viewBox="0 0 16 18" fill="none" xmlns="http://www.w3.org/2000/svg">
<path d="M2.10816 9.07625C2.12925 9.07625 2.15031 9.07625 2.16905 9.07625C2.12689 9.07625 2.08473 9.0739 2.04492 9.06921C2.066 9.07157 2.08708 9.0739 2.10816 9.07625Z" fill="#11100E"/>
<path d="M2.04408 9.06891C2.01831 9.06658 1.99256 9.06422 1.9668 9.06189C1.99256 9.06422 2.01831 9.06658 2.04408 9.06891Z" fill="#11100E"/>
<path d="M0.145199 6.0644C1.22482 2.83723 4.26697 0.5 7.85948 0.5C11.6159 0.5 14.7775 3.04801 15.7166 6.50936C15.3349 6.24707 14.9016 6.05034 14.4473 5.92623C13.9391 5.78805 13.4122 5.73654 12.8923 5.74356C11.8478 5.7576 10.8407 5.99649 9.87353 6.28688C8.90865 6.58431 7.97658 6.94965 7.06556 7.33138C6.15455 7.71311 5.26229 8.11357 4.37939 8.4953L4.04918 8.63816C3.93911 8.68501 3.82435 8.73653 3.73536 8.76696L3.45199 8.87235L3.17095 8.95432C2.86182 9.03396 2.56441 9.0761 2.28571 9.07845C2.24823 9.07845 2.21078 9.07845 2.1733 9.07845C2.13114 9.07845 2.089 9.0761 2.04917 9.07141C2.02342 9.06908 1.99765 9.06675 1.97189 9.06439C0.859485 8.93091 0 7.99179 0 6.84895C0 6.84895 0 6.46018 0.145199 6.0644Z" fill="#11100E"/>
<path d="M13.625 7.06881C13.6367 7.06881 13.6484 7.06645 13.6601 7.06645C13.6461 7.06881 13.6367 7.06881 13.625 7.06881Z" fill="#11100E"/>
<path d="M13.7702 7.06204C13.7328 7.06204 13.6953 7.06673 13.6602 7.06673C13.7187 7.06438 13.7772 7.06438 13.8335 7.06438C13.8124 7.06438 13.7913 7.06204 13.7702 7.06204Z" fill="#11100E"/>
<path d="M13.502 7.08096C13.5418 7.07863 13.5839 7.07394 13.6237 7.07161C13.5839 7.07161 13.5441 7.07394 13.502 7.08096Z" fill="#11100E"/>
<path d="M15.9973 9.231C15.9949 9.31297 15.9949 9.39494 15.9902 9.47456C15.9949 9.41367 15.9996 9.35278 15.9996 9.29189C15.9996 9.27081 15.9973 9.25208 15.9973 9.231Z" fill="#11100E"/>
<path d="M13.8332 7.06425C13.7747 7.06425 13.7161 7.06426 13.6599 7.06659C13.6482 7.06659 13.6365 7.06659 13.6248 7.06894C13.585 7.07128 13.5428 7.07596 13.503 7.07831C13.3273 7.09236 13.1494 7.11344 12.9761 7.14387C12.0861 7.30079 11.2243 7.65207 10.3882 8.06191C9.55218 8.47643 8.73718 8.95652 7.92455 9.46472C7.81212 9.53499 7.69972 9.60523 7.58731 9.67783C6.88942 10.1181 6.19152 10.5771 5.47959 11.0315L5.1681 11.2305C5.06271 11.2961 4.9667 11.3617 4.83555 11.4343L4.46319 11.645L4.06975 11.8347C3.53345 12.0736 2.94328 12.2657 2.30394 12.35C1.67396 12.4343 0.994804 12.4085 0.34375 12.2516C1.57326 15.1884 4.47256 17.2539 7.85662 17.2539C10.9433 17.2539 13.6271 15.5373 15.0088 13.0057C15.585 11.9495 15.9339 10.7528 15.9901 9.47876C15.9948 9.39681 15.9948 9.31718 15.9971 9.2352C15.9644 8.0502 15.0135 7.09938 13.8332 7.06425Z" fill="#11100E"/>
<path d="M13.8334 7.06425C13.7748 7.06425 13.7163 7.06426 13.6601 7.06659C13.6484 7.06659 13.6366 7.06659 13.6249 7.06894C13.5851 7.07128 13.543 7.07596 13.5032 7.07831C13.3275 7.09236 13.1495 7.11344 12.9762 7.14387C12.0863 7.30079 11.2245 7.65207 10.3884 8.06191C9.55235 8.47643 8.73735 8.95652 7.9247 9.46472C7.81229 9.53499 7.69989 9.60523 7.58746 9.67783C7.2432 9.89564 6.89895 10.1158 6.55469 10.3406C14.4305 6.87925 15.4071 12.1462 15.4095 12.1579C15.7467 11.3242 15.9505 10.4202 15.9926 9.47643C15.9973 9.39446 15.9973 9.31484 15.9996 9.23287C15.9645 8.0502 15.0137 7.09938 13.8334 7.06425Z" fill="#11100E"/>
<path d="M2.00703 2.99687C1.17798 3.86104 0.533957 4.9032 0.145199 6.06479C0 6.46057 0 6.84934 0 6.84934C0 7.99218 0.859485 8.93363 1.96722 9.06245C1.99297 9.06478 2.01874 9.06714 2.0445 9.06947C2.08665 9.0718 2.12881 9.07416 2.16862 9.07649C2.20609 9.07649 2.24357 9.07649 2.28102 9.07649C2.55972 9.0718 2.85948 9.032 3.16627 8.95238L3.4473 8.87041L3.73067 8.76502C3.81966 8.73457 3.93677 8.68305 4.04449 8.63622L4.37471 8.49336C5.2576 8.11163 6.14988 7.71115 7.06088 7.32942C7.59484 7.1046 8.13583 6.88915 8.68617 6.68773V6.6854C-0.192037 9.18892 1.99532 3.03201 2.00703 2.99687Z" fill="#11100E"/>
</svg>
