<svg width="120" height="120" viewBox="0 0 120 120" fill="none" xmlns="http://www.w3.org/2000/svg">
<path d="M15.8063 61.4276C15.9645 61.4276 16.1224 61.4276 16.263 61.4276C15.9468 61.4276 15.6306 61.4107 15.332 61.3771C15.4901 61.394 15.6482 61.4107 15.8063 61.4276Z" fill="url(#paint0_linear_228_934)"/>
<path d="M15.3296 61.3748C15.1364 61.3581 14.9433 61.3413 14.75 61.3245C14.9433 61.3413 15.1364 61.3581 15.3296 61.3748Z" fill="url(#paint1_linear_228_934)"/>
<path d="M1.08899 39.855C9.18617 16.7404 32.0023 0 58.9461 0C87.1194 0 110.831 18.2502 117.875 43.042C115.012 41.1634 111.762 39.7543 108.355 38.8654C104.543 37.8757 100.591 37.5067 96.6919 37.557C88.8583 37.6576 81.3056 39.3686 74.0515 41.4485C66.8149 43.5789 59.8243 46.1956 52.9917 48.9298C46.1591 51.6639 39.4671 54.5322 32.8455 57.2664L30.3688 58.2896C29.5433 58.6252 28.6826 58.9942 28.0152 59.2121L25.8899 59.967L23.7822 60.5541C21.4636 61.1245 19.2331 61.4263 17.1428 61.4432C16.8618 61.4432 16.5808 61.4432 16.2998 61.4432C15.9836 61.4432 15.6675 61.4263 15.3688 61.3928C15.1757 61.376 14.9824 61.3593 14.7892 61.3425C6.44614 60.3864 0 53.66 0 45.4743C0 45.4743 0 42.6898 1.08899 39.855Z" fill="url(#paint2_linear_228_934)"/>
<path d="M102.186 47.0498C102.273 47.0498 102.361 47.0321 102.449 47.0321C102.344 47.0498 102.273 47.0498 102.186 47.0498Z" fill="url(#paint3_linear_228_934)"/>
<path d="M103.279 47.0006C102.998 47.0006 102.717 47.0341 102.453 47.0341C102.892 47.0173 103.331 47.0173 103.753 47.0173C103.595 47.0173 103.437 47.0006 103.279 47.0006Z" fill="url(#paint4_linear_228_934)"/>
<path d="M101.26 47.1361C101.558 47.1193 101.874 47.0858 102.173 47.0691C101.874 47.0691 101.576 47.0858 101.26 47.1361Z" fill="url(#paint5_linear_228_934)"/>
<path d="M119.978 62.5357C119.961 63.1228 119.961 63.7099 119.926 64.2802C119.961 63.8441 119.996 63.408 119.996 62.9718C119.996 62.8209 119.978 62.6867 119.978 62.5357Z" fill="url(#paint6_linear_228_934)"/>
<path d="M103.751 47.0163C103.312 47.0163 102.873 47.0163 102.451 47.0331C102.363 47.0331 102.276 47.0331 102.188 47.0499C101.889 47.0666 101.573 47.1002 101.274 47.117C99.957 47.2176 98.6222 47.3686 97.3224 47.5866C90.648 48.7105 84.1842 51.2266 77.9138 54.162C71.6433 57.131 65.5308 60.5697 59.4361 64.2097C58.5929 64.713 57.7498 65.2161 56.9068 65.7361C51.6726 68.8896 46.4383 72.1773 41.0988 75.4315L38.7627 76.8573C37.9723 77.327 37.2522 77.7966 36.2686 78.3166L33.4759 79.8263L30.5251 81.1849C26.5028 82.896 22.0765 84.2714 17.2815 84.8752C12.5567 85.4792 7.46298 85.2946 2.58008 84.1708C11.8014 105.205 33.5462 120 58.9266 120C82.0765 120 102.205 107.705 112.568 89.572C116.889 82.0069 119.506 73.4354 119.928 64.3103C119.963 63.7233 119.963 63.1529 119.98 62.5658C119.735 54.0782 112.603 47.2679 103.751 47.0163Z" fill="url(#paint7_linear_228_934)"/>
<path d="M103.752 47.0163C103.313 47.0163 102.874 47.0163 102.452 47.0331C102.365 47.0331 102.277 47.0331 102.189 47.0499C101.89 47.0666 101.574 47.1002 101.276 47.117C99.9583 47.2176 98.6234 47.3686 97.3235 47.5866C90.6492 48.7105 84.1855 51.2266 77.915 54.162C71.6445 57.131 65.532 60.5697 59.4372 64.2097C58.5941 64.713 57.7511 65.2161 56.9079 65.7361C54.326 67.2961 51.744 68.8729 49.1621 70.4831C108.231 45.6913 115.555 83.416 115.573 83.4998C118.102 77.5282 119.63 71.0535 119.947 64.2936C119.982 63.7064 119.982 63.1362 119.999 62.5491C119.736 54.0782 112.605 47.2679 103.752 47.0163Z" fill="url(#paint8_linear_228_934)"/>
<path d="M15.0527 17.8839C8.83488 24.0734 4.00468 31.538 1.08899 39.8579C0 42.6926 0 45.4772 0 45.4772C0 53.6628 6.44614 60.4059 14.7541 61.3286C14.9473 61.3453 15.1405 61.3622 15.3338 61.3789C15.6498 61.3956 15.9661 61.4124 16.2646 61.4292C16.5457 61.4292 16.8267 61.4292 17.1077 61.4292C19.1979 61.3956 21.4461 61.1105 23.747 60.5402L25.8548 59.9531L27.98 59.1983C28.6475 58.9801 29.5258 58.6111 30.3337 58.2757L32.8103 57.2525C39.432 54.5183 46.1241 51.6499 52.9566 48.9157C56.9613 47.3055 61.0187 45.7623 65.1463 44.3197V44.3029C-1.44027 62.2344 14.9649 18.1356 15.0527 17.8839Z" fill="url(#paint9_linear_228_934)"/>
<defs>
<linearGradient id="paint0_linear_228_934" x1="100.905" y1="16.9424" x2="11.8844" y2="67.9531" gradientUnits="userSpaceOnUse">
<stop stop-color="#FF9700"/>
<stop offset="0.1252" stop-color="#FF8E00"/>
<stop offset="0.3317" stop-color="#FF7500"/>
<stop offset="0.5939" stop-color="#FF4C00"/>
<stop offset="0.8988" stop-color="#FF1400"/>
<stop offset="1" stop-color="#FF0000"/>
</linearGradient>
<linearGradient id="paint1_linear_228_934" x1="37.0829" y1="49.8384" x2="9.73615" y2="65.5103" gradientUnits="userSpaceOnUse">
<stop stop-color="#FF9700"/>
<stop offset="0.1252" stop-color="#FF8E00"/>
<stop offset="0.3317" stop-color="#FF7500"/>
<stop offset="0.5939" stop-color="#FF4C00"/>
<stop offset="0.8988" stop-color="#FF1400"/>
<stop offset="1" stop-color="#FF0000"/>
</linearGradient>
<linearGradient id="paint2_linear_228_934" x1="80.6821" y1="0.638421" x2="20.274" y2="126.008" gradientUnits="userSpaceOnUse">
<stop stop-color="#FFB74F"/>
<stop offset="0.218012" stop-color="#FF8E00"/>
<stop offset="0.3317" stop-color="#FF7500"/>
<stop offset="0.5939" stop-color="#FF4C00"/>
<stop offset="0.8988" stop-color="#FF1400"/>
<stop offset="1" stop-color="#FF0000"/>
</linearGradient>
<linearGradient id="paint3_linear_228_934" x1="110.09" y1="42.778" x2="10.4911" y2="97.1427" gradientUnits="userSpaceOnUse">
<stop stop-color="#FF9700"/>
<stop offset="0.1252" stop-color="#FF8E00"/>
<stop offset="0.3317" stop-color="#FF7500"/>
<stop offset="0.5939" stop-color="#FF4C00"/>
<stop offset="0.8988" stop-color="#FF1400"/>
<stop offset="1" stop-color="#FF0000"/>
</linearGradient>
<linearGradient id="paint4_linear_228_934" x1="109.951" y1="43.4495" x2="82.598" y2="59.1172" gradientUnits="userSpaceOnUse">
<stop stop-color="#FF9700"/>
<stop offset="0.1252" stop-color="#FF8E00"/>
<stop offset="0.3317" stop-color="#FF7500"/>
<stop offset="0.5939" stop-color="#FF4C00"/>
<stop offset="0.8988" stop-color="#FF1400"/>
<stop offset="1" stop-color="#FF0000"/>
</linearGradient>
<linearGradient id="paint5_linear_228_934" x1="109.662" y1="42.9453" x2="82.314" y2="58.6157" gradientUnits="userSpaceOnUse">
<stop stop-color="#FF9700"/>
<stop offset="0.1252" stop-color="#FF8E00"/>
<stop offset="0.3317" stop-color="#FF7500"/>
<stop offset="0.5939" stop-color="#FF4C00"/>
<stop offset="0.8988" stop-color="#FF1400"/>
<stop offset="1" stop-color="#FF0000"/>
</linearGradient>
<linearGradient id="paint6_linear_228_934" x1="121.054" y1="62.8376" x2="93.7054" y2="78.5049" gradientUnits="userSpaceOnUse">
<stop stop-color="#FF9700"/>
<stop offset="0.1252" stop-color="#FF8E00"/>
<stop offset="0.3317" stop-color="#FF7500"/>
<stop offset="0.5939" stop-color="#FF4C00"/>
<stop offset="0.8988" stop-color="#FF1400"/>
<stop offset="1" stop-color="#FF0000"/>
</linearGradient>
<linearGradient id="paint7_linear_228_934" x1="108.018" y1="17.831" x2="49.166" y2="144.806" gradientUnits="userSpaceOnUse">
<stop stop-color="#FF9700"/>
<stop offset="0.1252" stop-color="#FF8E00"/>
<stop offset="0.3317" stop-color="#FF7500"/>
<stop offset="0.5939" stop-color="#FF4C00"/>
<stop offset="0.8988" stop-color="#FF1400"/>
<stop offset="1" stop-color="#FF0000"/>
</linearGradient>
<linearGradient id="paint8_linear_228_934" x1="89.0838" y1="59.992" x2="143.58" y2="107.158" gradientUnits="userSpaceOnUse">
<stop stop-color="#FFA522"/>
<stop offset="0.298461" stop-color="#FF8E00"/>
<stop offset="0.671554" stop-color="#FF7500"/>
<stop offset="1" stop-color="#FF4C00"/>
</linearGradient>
<linearGradient id="paint9_linear_228_934" x1="-87.4284" y1="-8.18246" x2="64.2115" y2="69.7883" gradientUnits="userSpaceOnUse">
<stop stop-color="#FF9700"/>
<stop offset="0.1252" stop-color="#FF8E00"/>
<stop offset="0.437079" stop-color="#FF7500"/>
<stop offset="0.8988" stop-color="#FF1400"/>
</linearGradient>
</defs>
</svg>
